%TF.GenerationSoftware,KiCad,Pcbnew,8.0.3-1.fc39*%
%TF.CreationDate,2024-06-27T20:10:53-06:00*%
%TF.ProjectId,Electronics,456c6563-7472-46f6-9e69-63732e6b6963,rev?*%
%TF.SameCoordinates,Original*%
%TF.FileFunction,Copper,L2,Bot*%
%TF.FilePolarity,Positive*%
%FSLAX46Y46*%
G04 Gerber Fmt 4.6, Leading zero omitted, Abs format (unit mm)*
G04 Created by KiCad (PCBNEW 8.0.3-1.fc39) date 2024-06-27 20:10:53*
%MOMM*%
%LPD*%
G01*
G04 APERTURE LIST*
%TA.AperFunction,ComponentPad*%
%ADD10R,1.700000X1.700000*%
%TD*%
%TA.AperFunction,ComponentPad*%
%ADD11O,1.700000X1.700000*%
%TD*%
%TA.AperFunction,ComponentPad*%
%ADD12R,4.400000X1.800000*%
%TD*%
%TA.AperFunction,ComponentPad*%
%ADD13O,4.000000X1.800000*%
%TD*%
%TA.AperFunction,ComponentPad*%
%ADD14O,1.800000X4.000000*%
%TD*%
%TA.AperFunction,ComponentPad*%
%ADD15R,1.500000X1.050000*%
%TD*%
%TA.AperFunction,ComponentPad*%
%ADD16O,1.500000X1.050000*%
%TD*%
%TA.AperFunction,ComponentPad*%
%ADD17C,2.000000*%
%TD*%
%TA.AperFunction,ComponentPad*%
%ADD18R,2.000000X2.000000*%
%TD*%
%TA.AperFunction,ComponentPad*%
%ADD19R,2.300000X2.300000*%
%TD*%
%TA.AperFunction,ComponentPad*%
%ADD20C,2.300000*%
%TD*%
%TA.AperFunction,ComponentPad*%
%ADD21R,1.500000X1.500000*%
%TD*%
%TA.AperFunction,ComponentPad*%
%ADD22C,1.600000*%
%TD*%
%TA.AperFunction,ViaPad*%
%ADD23C,0.600000*%
%TD*%
%TA.AperFunction,Conductor*%
%ADD24C,0.200000*%
%TD*%
G04 APERTURE END LIST*
D10*
%TO.P,D1,1,A*%
%TO.N,Net-(D1-A)*%
X169000000Y-66500000D03*
D11*
%TO.P,D1,2,GK*%
%TO.N,Net-(D1-GK)*%
X171540000Y-66500000D03*
%TO.P,D1,3,RK*%
%TO.N,Net-(D1-RK)*%
X174080000Y-66500000D03*
%TO.P,D1,4,BK*%
%TO.N,Net-(D1-BK)*%
X176620000Y-66500000D03*
%TD*%
D12*
%TO.P,J1,1*%
%TO.N,+12V*%
X101500000Y-67500000D03*
D13*
%TO.P,J1,2*%
%TO.N,GND_HIGH*%
X101500000Y-61700000D03*
D14*
%TO.P,J1,3*%
%TO.N,N/C*%
X96700000Y-64500000D03*
%TD*%
D15*
%TO.P,Q2,1,E*%
%TO.N,GND_HIGH*%
X212000000Y-110540000D03*
D16*
%TO.P,Q2,2,B*%
%TO.N,Net-(Q2-B)*%
X212000000Y-109270000D03*
%TO.P,Q2,3,C*%
%TO.N,Net-(D1-GK)*%
X212000000Y-108000000D03*
%TD*%
D10*
%TO.P,M1,1,-*%
%TO.N,GND_HIGH*%
X153040000Y-66500000D03*
D11*
%TO.P,M1,2,+*%
%TO.N,Net-(D1-A)*%
X155580000Y-66500000D03*
%TO.P,M1,3,Tacho*%
%TO.N,unconnected-(M1-Tacho-Pad3)*%
X158120000Y-66500000D03*
%TO.P,M1,4,PWM*%
%TO.N,Net-(D2-A)*%
X160660000Y-66500000D03*
%TD*%
D17*
%TO.P,SW3,1,1*%
%TO.N,unconnected-(SW3-Pad1)*%
X98500000Y-97000000D03*
%TO.P,SW3,2,2*%
%TO.N,Net-(U1-VOUT)*%
X105000000Y-97000000D03*
%TO.P,SW3,3,K*%
%TO.N,Net-(SW3-K)*%
X105000000Y-101500000D03*
%TO.P,SW3,4,A*%
%TO.N,Net-(SW3-A)*%
X98500000Y-101500000D03*
%TD*%
D18*
%TO.P,U3,1,3V3*%
%TO.N,unconnected-(U3-3V3-Pad1)*%
X189000000Y-118400000D03*
D17*
%TO.P,U3,2,GND*%
%TO.N,GND_LOW*%
X189000000Y-115860000D03*
%TO.P,U3,3,D15*%
%TO.N,unconnected-(U3-D15-Pad3)*%
X189000000Y-113320000D03*
%TO.P,U3,4,D2*%
%TO.N,Net-(D3-A)*%
X189000000Y-110780000D03*
%TO.P,U3,5,D4*%
%TO.N,Net-(D4-A)*%
X189000000Y-108240000D03*
%TO.P,U3,6,RX2*%
%TO.N,unconnected-(U3-RX2-Pad6)*%
X189000000Y-105700000D03*
%TO.P,U3,7,TX2*%
%TO.N,unconnected-(U3-TX2-Pad7)*%
X189000000Y-103160000D03*
%TO.P,U3,8,D5*%
%TO.N,Net-(D5-A)*%
X189000000Y-100620000D03*
%TO.P,U3,9,D18*%
%TO.N,unconnected-(U3-D18-Pad9)*%
X189000000Y-98080000D03*
%TO.P,U3,10,D19*%
%TO.N,Net-(D2-A)*%
X189000000Y-95540000D03*
%TO.P,U3,11,D21*%
%TO.N,unconnected-(U3-D21-Pad11)*%
X189000000Y-93000000D03*
%TO.P,U3,12,RX0*%
%TO.N,unconnected-(U3-RX0-Pad12)*%
X189000000Y-90460000D03*
%TO.P,U3,13,TX0*%
%TO.N,unconnected-(U3-TX0-Pad13)*%
X189000000Y-87920000D03*
%TO.P,U3,14,D22*%
%TO.N,unconnected-(U3-D22-Pad14)*%
X189000000Y-85380000D03*
%TO.P,U3,15,D23*%
%TO.N,unconnected-(U3-D23-Pad15)*%
X189000000Y-82840000D03*
%TO.P,U3,16,EN*%
%TO.N,unconnected-(U3-EN-Pad16)*%
X163600000Y-82840000D03*
%TO.P,U3,17,VP*%
%TO.N,Net-(U3-VP)*%
X163600000Y-85380000D03*
%TO.P,U3,18,VN*%
%TO.N,Net-(U3-VN)*%
X163600000Y-87920000D03*
%TO.P,U3,19,D34*%
%TO.N,Net-(SW4-K)*%
X163600000Y-90460000D03*
%TO.P,U3,20,D35*%
%TO.N,Net-(SW3-K)*%
X163600000Y-93000000D03*
%TO.P,U3,21,D32*%
%TO.N,Net-(SW1-K)*%
X163600000Y-95540000D03*
%TO.P,U3,22,D33*%
%TO.N,Net-(SW2-K)*%
X163600000Y-98080000D03*
%TO.P,U3,23,D25*%
%TO.N,unconnected-(U3-D25-Pad23)*%
X163600000Y-100620000D03*
%TO.P,U3,24,D26*%
%TO.N,unconnected-(U3-D26-Pad24)*%
X163600000Y-103160000D03*
%TO.P,U3,25,D27*%
%TO.N,unconnected-(U3-D27-Pad25)*%
X163600000Y-105700000D03*
%TO.P,U3,26,D14*%
%TO.N,unconnected-(U3-D14-Pad26)*%
X163600000Y-108240000D03*
%TO.P,U3,27,D12*%
%TO.N,unconnected-(U3-D12-Pad27)*%
X163600000Y-110780000D03*
%TO.P,U3,28,D13*%
%TO.N,unconnected-(U3-D13-Pad28)*%
X163600000Y-113320000D03*
%TO.P,U3,29,GND*%
%TO.N,GND_LOW*%
X163600000Y-115860000D03*
%TO.P,U3,30,VIN*%
%TO.N,Net-(U1-VOUT)*%
X163600000Y-118400000D03*
%TD*%
D19*
%TO.P,U1,1,VIN*%
%TO.N,Net-(D1-A)*%
X139600000Y-80000000D03*
D20*
%TO.P,U1,2,GND*%
%TO.N,GND_HIGH*%
X122000000Y-80000000D03*
D19*
%TO.P,U1,3,VOUT*%
%TO.N,Net-(U1-VOUT)*%
X139600000Y-120400000D03*
D20*
%TO.P,U1,4,GND*%
%TO.N,GND_LOW*%
X122000000Y-120400000D03*
%TD*%
D15*
%TO.P,Q3,1,E*%
%TO.N,GND_HIGH*%
X212000000Y-100540000D03*
D16*
%TO.P,Q3,2,B*%
%TO.N,Net-(Q3-B)*%
X212000000Y-99270000D03*
%TO.P,Q3,3,C*%
%TO.N,Net-(D1-BK)*%
X212000000Y-98000000D03*
%TD*%
D21*
%TO.P,SW5,1,B*%
%TO.N,+12V*%
X126000000Y-71000000D03*
D22*
%TO.P,SW5,2,C*%
%TO.N,Net-(D6-A)*%
X123460000Y-71000000D03*
%TO.P,SW5,3,A*%
%TO.N,Net-(D1-A)*%
X128540000Y-71000000D03*
%TD*%
%TO.P,C1,1*%
%TO.N,GND_HIGH*%
X152080000Y-71500000D03*
%TO.P,C1,2*%
%TO.N,Net-(D1-A)*%
X157080000Y-71500000D03*
%TD*%
D17*
%TO.P,SW1,1,1*%
%TO.N,unconnected-(SW1-Pad1)*%
X98500000Y-117000000D03*
%TO.P,SW1,2,2*%
%TO.N,Net-(U1-VOUT)*%
X105000000Y-117000000D03*
%TO.P,SW1,3,K*%
%TO.N,Net-(SW1-K)*%
X105000000Y-121500000D03*
%TO.P,SW1,4,A*%
%TO.N,Net-(SW1-A)*%
X98500000Y-121500000D03*
%TD*%
%TO.P,SW2,1,1*%
%TO.N,unconnected-(SW2-Pad1)*%
X98500000Y-137000000D03*
%TO.P,SW2,2,2*%
%TO.N,Net-(U1-VOUT)*%
X105000000Y-137000000D03*
%TO.P,SW2,3,K*%
%TO.N,Net-(SW2-K)*%
X105000000Y-141500000D03*
%TO.P,SW2,4,A*%
%TO.N,Net-(SW2-A)*%
X98500000Y-141500000D03*
%TD*%
D15*
%TO.P,Q1,1,E*%
%TO.N,GND_HIGH*%
X212000000Y-120540000D03*
D16*
%TO.P,Q1,2,B*%
%TO.N,Net-(Q1-B)*%
X212000000Y-119270000D03*
%TO.P,Q1,3,C*%
%TO.N,Net-(D1-RK)*%
X212000000Y-118000000D03*
%TD*%
D17*
%TO.P,SW4,1,1*%
%TO.N,unconnected-(SW4-Pad1)*%
X98500000Y-77000000D03*
%TO.P,SW4,2,2*%
%TO.N,Net-(U1-VOUT)*%
X105000000Y-77000000D03*
%TO.P,SW4,3,K*%
%TO.N,Net-(SW4-K)*%
X105000000Y-81500000D03*
%TO.P,SW4,4,A*%
%TO.N,Net-(SW4-A)*%
X98500000Y-81500000D03*
%TD*%
D23*
%TO.N,Net-(D1-RK)*%
X203000000Y-113000000D03*
%TO.N,Net-(D1-GK)*%
X198000000Y-104500000D03*
%TO.N,Net-(D2-A)*%
X131500000Y-146500000D03*
%TO.N,Net-(D4-A)*%
X199000000Y-110000000D03*
X199000000Y-120000000D03*
%TO.N,Net-(D5-A)*%
X196000000Y-102000000D03*
X196000000Y-120000000D03*
%TO.N,Net-(U3-VP)*%
X146500000Y-117500000D03*
X146500000Y-122000000D03*
%TO.N,Net-(U3-VN)*%
X154000000Y-122000000D03*
X149500000Y-117500000D03*
%TO.N,Net-(SW1-K)*%
X155000000Y-95540000D03*
X113000000Y-121500000D03*
%TO.N,Net-(SW2-K)*%
X152000000Y-118500000D03*
X113000000Y-141500000D03*
%TO.N,Net-(SW3-K)*%
X155000000Y-93000000D03*
X113000000Y-101500000D03*
%TO.N,Net-(SW4-K)*%
X113000000Y-82000000D03*
X155000000Y-90460000D03*
%TD*%
D24*
%TO.N,Net-(D1-RK)*%
X179080000Y-71500000D02*
X174080000Y-66500000D01*
X203000000Y-76500000D02*
X198000000Y-71500000D01*
X198000000Y-71500000D02*
X179080000Y-71500000D01*
X203000000Y-113000000D02*
X203000000Y-76500000D01*
%TO.N,Net-(D1-GK)*%
X172500000Y-71000000D02*
X172500000Y-67460000D01*
X198000000Y-104500000D02*
X198000000Y-76500000D01*
X172500000Y-67460000D02*
X171540000Y-66500000D01*
X198000000Y-76500000D02*
X196000000Y-74500000D01*
X176000000Y-74500000D02*
X172500000Y-71000000D01*
X196000000Y-74500000D02*
X176000000Y-74500000D01*
%TO.N,Net-(D2-A)*%
X192000000Y-132500000D02*
X174500000Y-150000000D01*
X169660000Y-75500000D02*
X193000000Y-75500000D01*
X131500000Y-147000000D02*
X131500000Y-146500000D01*
X174500000Y-150000000D02*
X134500000Y-150000000D01*
X134500000Y-150000000D02*
X131500000Y-147000000D01*
X193000000Y-91540000D02*
X189000000Y-95540000D01*
X160660000Y-66500000D02*
X169660000Y-75500000D01*
X189000000Y-95540000D02*
X191040000Y-95540000D01*
X193000000Y-75500000D02*
X193000000Y-91540000D01*
X192000000Y-96500000D02*
X192000000Y-132500000D01*
X191040000Y-95540000D02*
X192000000Y-96500000D01*
%TO.N,Net-(D4-A)*%
X199000000Y-110000000D02*
X199000000Y-120000000D01*
%TO.N,Net-(D5-A)*%
X196000000Y-102000000D02*
X196000000Y-120000000D01*
%TO.N,Net-(U3-VP)*%
X146500000Y-117500000D02*
X146500000Y-122000000D01*
%TO.N,Net-(U3-VN)*%
X154000000Y-118500000D02*
X153000000Y-117500000D01*
X154000000Y-118500000D02*
X154000000Y-122000000D01*
X149500000Y-117500000D02*
X153000000Y-117500000D01*
%TO.N,Net-(SW1-K)*%
X154960000Y-95500000D02*
X139000000Y-95500000D01*
X139000000Y-95500000D02*
X113000000Y-121500000D01*
X155000000Y-95540000D02*
X154960000Y-95500000D01*
%TO.N,Net-(U1-VOUT)*%
X110000000Y-97000000D02*
X110000000Y-98000000D01*
X105000000Y-77000000D02*
X108500000Y-77000000D01*
X139600000Y-122400000D02*
X139600000Y-120400000D01*
X105000000Y-117000000D02*
X108500000Y-117000000D01*
X110000000Y-98000000D02*
X110000000Y-117000000D01*
X108500000Y-77000000D02*
X110000000Y-78500000D01*
X110000000Y-78500000D02*
X110000000Y-97000000D01*
X110000000Y-117000000D02*
X110000000Y-118500000D01*
X129500000Y-132500000D02*
X139600000Y-122400000D01*
X110000000Y-118500000D02*
X110000000Y-137000000D01*
X109000000Y-97000000D02*
X110000000Y-98000000D01*
X114500000Y-132500000D02*
X129500000Y-132500000D01*
X110000000Y-137000000D02*
X105000000Y-137000000D01*
X108500000Y-117000000D02*
X110000000Y-118500000D01*
X105000000Y-97000000D02*
X109000000Y-97000000D01*
X110000000Y-137000000D02*
X114500000Y-132500000D01*
%TO.N,Net-(SW2-K)*%
X129000000Y-141500000D02*
X152000000Y-118500000D01*
X113000000Y-141500000D02*
X129000000Y-141500000D01*
%TO.N,Net-(SW3-K)*%
X121500000Y-93000000D02*
X113000000Y-101500000D01*
X155000000Y-93000000D02*
X121500000Y-93000000D01*
%TO.N,Net-(SW4-K)*%
X154960000Y-90500000D02*
X121500000Y-90500000D01*
X155000000Y-90460000D02*
X154960000Y-90500000D01*
X121500000Y-90500000D02*
X113000000Y-82000000D01*
%TO.N,GND_HIGH*%
X103700000Y-61700000D02*
X101500000Y-61700000D01*
X122000000Y-80000000D02*
X103700000Y-61700000D01*
%TO.N,GND_LOW*%
X163600000Y-115860000D02*
X189000000Y-115860000D01*
X126540000Y-115860000D02*
X163600000Y-115860000D01*
X122000000Y-120400000D02*
X126540000Y-115860000D01*
%TD*%
M02*
