M48
; DRILL file {KiCad 8.0.3-1.fc39} date 2024-06-27T20:10:42-0600
; FORMAT={-:-/ absolute / inch / decimal}
; #@! TF.CreationDate,2024-06-27T20:10:42-06:00
; #@! TF.GenerationSoftware,Kicad,Pcbnew,8.0.3-1.fc39
; #@! TF.FileFunction,Plated,1,2,PTH
FMAT,2
INCH
; #@! TA.AperFunction,Plated,PTH,ViaDrill
T1C0.0118
; #@! TA.AperFunction,Plated,PTH,ComponentDrill
T2C0.0295
; #@! TA.AperFunction,Plated,PTH,ComponentDrill
T3C0.0315
; #@! TA.AperFunction,Plated,PTH,ComponentDrill
T4C0.0394
; #@! TA.AperFunction,Plated,PTH,ComponentDrill
T5C0.0402
; #@! TA.AperFunction,Plated,PTH,ComponentDrill
T6C0.0433
; #@! TA.AperFunction,Plated,PTH,ComponentDrill
T7C0.0512
%
G90
G05
T1
X4.4488Y-3.2283
X4.4488Y-3.9961
X4.4488Y-4.7835
X4.4488Y-5.5709
X5.1772Y-5.7677
X5.7677Y-4.626
X5.7677Y-4.8031
X5.8858Y-4.626
X5.9843Y-4.6654
X6.063Y-4.8031
X6.1024Y-3.5614
X6.1024Y-3.6614
X6.1024Y-3.7614
X7.7165Y-4.0157
X7.7165Y-4.7244
X7.7953Y-4.1142
X7.8346Y-4.3307
X7.8346Y-4.7244
X7.9921Y-4.4488
T2
X8.3465Y-3.8583
X8.3465Y-3.9083
X8.3465Y-3.9583
X8.3465Y-4.252
X8.3465Y-4.302
X8.3465Y-4.352
X8.3465Y-4.6457
X8.3465Y-4.6957
X8.3465Y-4.7457
T3
X4.8606Y-2.7953
X4.9606Y-2.7953
X5.0606Y-2.7953
X5.9874Y-2.815
X6.1843Y-2.815
T4
X6.0252Y-2.6181
X6.1252Y-2.6181
X6.2252Y-2.6181
X6.3252Y-2.6181
X6.6535Y-2.6181
X6.7535Y-2.6181
X6.8535Y-2.6181
X6.9535Y-2.6181
T5
X6.4409Y-3.2614
X6.4409Y-3.3614
X6.4409Y-3.4614
X6.4409Y-3.5614
X6.4409Y-3.6614
X6.4409Y-3.7614
X6.4409Y-3.8614
X6.4409Y-3.9614
X6.4409Y-4.0614
X6.4409Y-4.1614
X6.4409Y-4.2614
X6.4409Y-4.3614
X6.4409Y-4.4614
X6.4409Y-4.5614
X6.4409Y-4.6614
X7.4409Y-3.2614
X7.4409Y-3.3614
X7.4409Y-3.4614
X7.4409Y-3.5614
X7.4409Y-3.6614
X7.4409Y-3.7614
X7.4409Y-3.8614
X7.4409Y-3.9614
X7.4409Y-4.0614
X7.4409Y-4.1614
X7.4409Y-4.2614
X7.4409Y-4.3614
X7.4409Y-4.4614
X7.4409Y-4.5614
X7.4409Y-4.6614
T6
X3.878Y-3.0315
X3.878Y-3.2087
X3.878Y-3.8189
X3.878Y-3.9961
X3.878Y-4.6063
X3.878Y-4.7835
X3.878Y-5.3937
X3.878Y-5.5709
X4.1339Y-3.0315
X4.1339Y-3.2087
X4.1339Y-3.8189
X4.1339Y-3.9961
X4.1339Y-4.6063
X4.1339Y-4.7835
X4.1339Y-5.3937
X4.1339Y-5.5709
T7
X4.8031Y-3.1496
X4.8031Y-4.7402
X5.4961Y-3.1496
X5.4961Y-4.7402
T3
G00X3.8071Y-2.4961
M15
G01X3.8071Y-2.5827
M16
G05
G00X4.0394Y-2.4291
M15
G01X3.9528Y-2.4291
M16
G05
G00X4.0472Y-2.6575
M15
G01X3.9449Y-2.6575
M16
G05
M30
