%TF.GenerationSoftware,KiCad,Pcbnew,8.0.3-1.fc39*%
%TF.CreationDate,2024-06-27T20:10:53-06:00*%
%TF.ProjectId,Electronics,456c6563-7472-46f6-9e69-63732e6b6963,rev?*%
%TF.SameCoordinates,Original*%
%TF.FileFunction,Legend,Top*%
%TF.FilePolarity,Positive*%
%FSLAX46Y46*%
G04 Gerber Fmt 4.6, Leading zero omitted, Abs format (unit mm)*
G04 Created by KiCad (PCBNEW 8.0.3-1.fc39) date 2024-06-27 20:10:53*
%MOMM*%
%LPD*%
G01*
G04 APERTURE LIST*
%ADD10C,0.100000*%
%ADD11C,0.150000*%
%ADD12C,0.120000*%
%ADD13C,0.127000*%
%ADD14C,0.200000*%
G04 APERTURE END LIST*
D10*
X89175200Y-135756265D02*
X89127580Y-135899122D01*
X89127580Y-135899122D02*
X89127580Y-136137217D01*
X89127580Y-136137217D02*
X89175200Y-136232455D01*
X89175200Y-136232455D02*
X89222819Y-136280074D01*
X89222819Y-136280074D02*
X89318057Y-136327693D01*
X89318057Y-136327693D02*
X89413295Y-136327693D01*
X89413295Y-136327693D02*
X89508533Y-136280074D01*
X89508533Y-136280074D02*
X89556152Y-136232455D01*
X89556152Y-136232455D02*
X89603771Y-136137217D01*
X89603771Y-136137217D02*
X89651390Y-135946741D01*
X89651390Y-135946741D02*
X89699009Y-135851503D01*
X89699009Y-135851503D02*
X89746628Y-135803884D01*
X89746628Y-135803884D02*
X89841866Y-135756265D01*
X89841866Y-135756265D02*
X89937104Y-135756265D01*
X89937104Y-135756265D02*
X90032342Y-135803884D01*
X90032342Y-135803884D02*
X90079961Y-135851503D01*
X90079961Y-135851503D02*
X90127580Y-135946741D01*
X90127580Y-135946741D02*
X90127580Y-136184836D01*
X90127580Y-136184836D02*
X90079961Y-136327693D01*
X89127580Y-136756265D02*
X90127580Y-136756265D01*
X90127580Y-136756265D02*
X90127580Y-137137217D01*
X90127580Y-137137217D02*
X90079961Y-137232455D01*
X90079961Y-137232455D02*
X90032342Y-137280074D01*
X90032342Y-137280074D02*
X89937104Y-137327693D01*
X89937104Y-137327693D02*
X89794247Y-137327693D01*
X89794247Y-137327693D02*
X89699009Y-137280074D01*
X89699009Y-137280074D02*
X89651390Y-137232455D01*
X89651390Y-137232455D02*
X89603771Y-137137217D01*
X89603771Y-137137217D02*
X89603771Y-136756265D01*
X89651390Y-137756265D02*
X89651390Y-138089598D01*
X89127580Y-138232455D02*
X89127580Y-137756265D01*
X89127580Y-137756265D02*
X90127580Y-137756265D01*
X90127580Y-137756265D02*
X90127580Y-138232455D01*
X89651390Y-138661027D02*
X89651390Y-138994360D01*
X89127580Y-139137217D02*
X89127580Y-138661027D01*
X89127580Y-138661027D02*
X90127580Y-138661027D01*
X90127580Y-138661027D02*
X90127580Y-139137217D01*
X89127580Y-139565789D02*
X90127580Y-139565789D01*
X90127580Y-139565789D02*
X90127580Y-139803884D01*
X90127580Y-139803884D02*
X90079961Y-139946741D01*
X90079961Y-139946741D02*
X89984723Y-140041979D01*
X89984723Y-140041979D02*
X89889485Y-140089598D01*
X89889485Y-140089598D02*
X89699009Y-140137217D01*
X89699009Y-140137217D02*
X89556152Y-140137217D01*
X89556152Y-140137217D02*
X89365676Y-140089598D01*
X89365676Y-140089598D02*
X89270438Y-140041979D01*
X89270438Y-140041979D02*
X89175200Y-139946741D01*
X89175200Y-139946741D02*
X89127580Y-139803884D01*
X89127580Y-139803884D02*
X89127580Y-139565789D01*
X90127580Y-141327694D02*
X89318057Y-141327694D01*
X89318057Y-141327694D02*
X89222819Y-141375313D01*
X89222819Y-141375313D02*
X89175200Y-141422932D01*
X89175200Y-141422932D02*
X89127580Y-141518170D01*
X89127580Y-141518170D02*
X89127580Y-141708646D01*
X89127580Y-141708646D02*
X89175200Y-141803884D01*
X89175200Y-141803884D02*
X89222819Y-141851503D01*
X89222819Y-141851503D02*
X89318057Y-141899122D01*
X89318057Y-141899122D02*
X90127580Y-141899122D01*
X89127580Y-142375313D02*
X90127580Y-142375313D01*
X90127580Y-142375313D02*
X90127580Y-142756265D01*
X90127580Y-142756265D02*
X90079961Y-142851503D01*
X90079961Y-142851503D02*
X90032342Y-142899122D01*
X90032342Y-142899122D02*
X89937104Y-142946741D01*
X89937104Y-142946741D02*
X89794247Y-142946741D01*
X89794247Y-142946741D02*
X89699009Y-142899122D01*
X89699009Y-142899122D02*
X89651390Y-142851503D01*
X89651390Y-142851503D02*
X89603771Y-142756265D01*
X89603771Y-142756265D02*
X89603771Y-142375313D01*
X89222819Y-96375312D02*
X89175200Y-96327693D01*
X89175200Y-96327693D02*
X89127580Y-96184836D01*
X89127580Y-96184836D02*
X89127580Y-96089598D01*
X89127580Y-96089598D02*
X89175200Y-95946741D01*
X89175200Y-95946741D02*
X89270438Y-95851503D01*
X89270438Y-95851503D02*
X89365676Y-95803884D01*
X89365676Y-95803884D02*
X89556152Y-95756265D01*
X89556152Y-95756265D02*
X89699009Y-95756265D01*
X89699009Y-95756265D02*
X89889485Y-95803884D01*
X89889485Y-95803884D02*
X89984723Y-95851503D01*
X89984723Y-95851503D02*
X90079961Y-95946741D01*
X90079961Y-95946741D02*
X90127580Y-96089598D01*
X90127580Y-96089598D02*
X90127580Y-96184836D01*
X90127580Y-96184836D02*
X90079961Y-96327693D01*
X90079961Y-96327693D02*
X90032342Y-96375312D01*
X89603771Y-96994360D02*
X89127580Y-96994360D01*
X90127580Y-96661027D02*
X89603771Y-96994360D01*
X89603771Y-96994360D02*
X90127580Y-97327693D01*
X89222819Y-98232455D02*
X89175200Y-98184836D01*
X89175200Y-98184836D02*
X89127580Y-98041979D01*
X89127580Y-98041979D02*
X89127580Y-97946741D01*
X89127580Y-97946741D02*
X89175200Y-97803884D01*
X89175200Y-97803884D02*
X89270438Y-97708646D01*
X89270438Y-97708646D02*
X89365676Y-97661027D01*
X89365676Y-97661027D02*
X89556152Y-97613408D01*
X89556152Y-97613408D02*
X89699009Y-97613408D01*
X89699009Y-97613408D02*
X89889485Y-97661027D01*
X89889485Y-97661027D02*
X89984723Y-97708646D01*
X89984723Y-97708646D02*
X90079961Y-97803884D01*
X90079961Y-97803884D02*
X90127580Y-97946741D01*
X90127580Y-97946741D02*
X90127580Y-98041979D01*
X90127580Y-98041979D02*
X90079961Y-98184836D01*
X90079961Y-98184836D02*
X90032342Y-98232455D01*
X89127580Y-99137217D02*
X89127580Y-98661027D01*
X89127580Y-98661027D02*
X90127580Y-98661027D01*
X89651390Y-99470551D02*
X89651390Y-99803884D01*
X89127580Y-99946741D02*
X89127580Y-99470551D01*
X89127580Y-99470551D02*
X90127580Y-99470551D01*
X90127580Y-99470551D02*
X90127580Y-99946741D01*
X89127580Y-101137218D02*
X90127580Y-101137218D01*
X90127580Y-101137218D02*
X89413295Y-101470551D01*
X89413295Y-101470551D02*
X90127580Y-101803884D01*
X90127580Y-101803884D02*
X89127580Y-101803884D01*
X90127580Y-102470551D02*
X90127580Y-102661027D01*
X90127580Y-102661027D02*
X90079961Y-102756265D01*
X90079961Y-102756265D02*
X89984723Y-102851503D01*
X89984723Y-102851503D02*
X89794247Y-102899122D01*
X89794247Y-102899122D02*
X89460914Y-102899122D01*
X89460914Y-102899122D02*
X89270438Y-102851503D01*
X89270438Y-102851503D02*
X89175200Y-102756265D01*
X89175200Y-102756265D02*
X89127580Y-102661027D01*
X89127580Y-102661027D02*
X89127580Y-102470551D01*
X89127580Y-102470551D02*
X89175200Y-102375313D01*
X89175200Y-102375313D02*
X89270438Y-102280075D01*
X89270438Y-102280075D02*
X89460914Y-102232456D01*
X89460914Y-102232456D02*
X89794247Y-102232456D01*
X89794247Y-102232456D02*
X89984723Y-102280075D01*
X89984723Y-102280075D02*
X90079961Y-102375313D01*
X90079961Y-102375313D02*
X90127580Y-102470551D01*
X89127580Y-103327694D02*
X90127580Y-103327694D01*
X90127580Y-103327694D02*
X90127580Y-103565789D01*
X90127580Y-103565789D02*
X90079961Y-103708646D01*
X90079961Y-103708646D02*
X89984723Y-103803884D01*
X89984723Y-103803884D02*
X89889485Y-103851503D01*
X89889485Y-103851503D02*
X89699009Y-103899122D01*
X89699009Y-103899122D02*
X89556152Y-103899122D01*
X89556152Y-103899122D02*
X89365676Y-103851503D01*
X89365676Y-103851503D02*
X89270438Y-103803884D01*
X89270438Y-103803884D02*
X89175200Y-103708646D01*
X89175200Y-103708646D02*
X89127580Y-103565789D01*
X89127580Y-103565789D02*
X89127580Y-103327694D01*
X89651390Y-104327694D02*
X89651390Y-104661027D01*
X89127580Y-104803884D02*
X89127580Y-104327694D01*
X89127580Y-104327694D02*
X90127580Y-104327694D01*
X90127580Y-104327694D02*
X90127580Y-104803884D01*
X89175200Y-115756265D02*
X89127580Y-115899122D01*
X89127580Y-115899122D02*
X89127580Y-116137217D01*
X89127580Y-116137217D02*
X89175200Y-116232455D01*
X89175200Y-116232455D02*
X89222819Y-116280074D01*
X89222819Y-116280074D02*
X89318057Y-116327693D01*
X89318057Y-116327693D02*
X89413295Y-116327693D01*
X89413295Y-116327693D02*
X89508533Y-116280074D01*
X89508533Y-116280074D02*
X89556152Y-116232455D01*
X89556152Y-116232455D02*
X89603771Y-116137217D01*
X89603771Y-116137217D02*
X89651390Y-115946741D01*
X89651390Y-115946741D02*
X89699009Y-115851503D01*
X89699009Y-115851503D02*
X89746628Y-115803884D01*
X89746628Y-115803884D02*
X89841866Y-115756265D01*
X89841866Y-115756265D02*
X89937104Y-115756265D01*
X89937104Y-115756265D02*
X90032342Y-115803884D01*
X90032342Y-115803884D02*
X90079961Y-115851503D01*
X90079961Y-115851503D02*
X90127580Y-115946741D01*
X90127580Y-115946741D02*
X90127580Y-116184836D01*
X90127580Y-116184836D02*
X90079961Y-116327693D01*
X89127580Y-116756265D02*
X90127580Y-116756265D01*
X90127580Y-116756265D02*
X90127580Y-117137217D01*
X90127580Y-117137217D02*
X90079961Y-117232455D01*
X90079961Y-117232455D02*
X90032342Y-117280074D01*
X90032342Y-117280074D02*
X89937104Y-117327693D01*
X89937104Y-117327693D02*
X89794247Y-117327693D01*
X89794247Y-117327693D02*
X89699009Y-117280074D01*
X89699009Y-117280074D02*
X89651390Y-117232455D01*
X89651390Y-117232455D02*
X89603771Y-117137217D01*
X89603771Y-117137217D02*
X89603771Y-116756265D01*
X89651390Y-117756265D02*
X89651390Y-118089598D01*
X89127580Y-118232455D02*
X89127580Y-117756265D01*
X89127580Y-117756265D02*
X90127580Y-117756265D01*
X90127580Y-117756265D02*
X90127580Y-118232455D01*
X89651390Y-118661027D02*
X89651390Y-118994360D01*
X89127580Y-119137217D02*
X89127580Y-118661027D01*
X89127580Y-118661027D02*
X90127580Y-118661027D01*
X90127580Y-118661027D02*
X90127580Y-119137217D01*
X89127580Y-119565789D02*
X90127580Y-119565789D01*
X90127580Y-119565789D02*
X90127580Y-119803884D01*
X90127580Y-119803884D02*
X90079961Y-119946741D01*
X90079961Y-119946741D02*
X89984723Y-120041979D01*
X89984723Y-120041979D02*
X89889485Y-120089598D01*
X89889485Y-120089598D02*
X89699009Y-120137217D01*
X89699009Y-120137217D02*
X89556152Y-120137217D01*
X89556152Y-120137217D02*
X89365676Y-120089598D01*
X89365676Y-120089598D02*
X89270438Y-120041979D01*
X89270438Y-120041979D02*
X89175200Y-119946741D01*
X89175200Y-119946741D02*
X89127580Y-119803884D01*
X89127580Y-119803884D02*
X89127580Y-119565789D01*
X89127580Y-121327694D02*
X90127580Y-121327694D01*
X90127580Y-121327694D02*
X90127580Y-121565789D01*
X90127580Y-121565789D02*
X90079961Y-121708646D01*
X90079961Y-121708646D02*
X89984723Y-121803884D01*
X89984723Y-121803884D02*
X89889485Y-121851503D01*
X89889485Y-121851503D02*
X89699009Y-121899122D01*
X89699009Y-121899122D02*
X89556152Y-121899122D01*
X89556152Y-121899122D02*
X89365676Y-121851503D01*
X89365676Y-121851503D02*
X89270438Y-121803884D01*
X89270438Y-121803884D02*
X89175200Y-121708646D01*
X89175200Y-121708646D02*
X89127580Y-121565789D01*
X89127580Y-121565789D02*
X89127580Y-121327694D01*
X90127580Y-122518170D02*
X90127580Y-122708646D01*
X90127580Y-122708646D02*
X90079961Y-122803884D01*
X90079961Y-122803884D02*
X89984723Y-122899122D01*
X89984723Y-122899122D02*
X89794247Y-122946741D01*
X89794247Y-122946741D02*
X89460914Y-122946741D01*
X89460914Y-122946741D02*
X89270438Y-122899122D01*
X89270438Y-122899122D02*
X89175200Y-122803884D01*
X89175200Y-122803884D02*
X89127580Y-122708646D01*
X89127580Y-122708646D02*
X89127580Y-122518170D01*
X89127580Y-122518170D02*
X89175200Y-122422932D01*
X89175200Y-122422932D02*
X89270438Y-122327694D01*
X89270438Y-122327694D02*
X89460914Y-122280075D01*
X89460914Y-122280075D02*
X89794247Y-122280075D01*
X89794247Y-122280075D02*
X89984723Y-122327694D01*
X89984723Y-122327694D02*
X90079961Y-122422932D01*
X90079961Y-122422932D02*
X90127580Y-122518170D01*
X90127580Y-123280075D02*
X89127580Y-123518170D01*
X89127580Y-123518170D02*
X89841866Y-123708646D01*
X89841866Y-123708646D02*
X89127580Y-123899122D01*
X89127580Y-123899122D02*
X90127580Y-124137218D01*
X89127580Y-124518170D02*
X90127580Y-124518170D01*
X90127580Y-124518170D02*
X89127580Y-125089598D01*
X89127580Y-125089598D02*
X90127580Y-125089598D01*
X204589598Y-130762475D02*
X204589598Y-131476760D01*
X204589598Y-131476760D02*
X204541979Y-131619617D01*
X204541979Y-131619617D02*
X204446741Y-131714856D01*
X204446741Y-131714856D02*
X204303884Y-131762475D01*
X204303884Y-131762475D02*
X204208646Y-131762475D01*
X205208646Y-131762475D02*
X205113408Y-131714856D01*
X205113408Y-131714856D02*
X205065789Y-131667236D01*
X205065789Y-131667236D02*
X205018170Y-131571998D01*
X205018170Y-131571998D02*
X205018170Y-131286284D01*
X205018170Y-131286284D02*
X205065789Y-131191046D01*
X205065789Y-131191046D02*
X205113408Y-131143427D01*
X205113408Y-131143427D02*
X205208646Y-131095808D01*
X205208646Y-131095808D02*
X205351503Y-131095808D01*
X205351503Y-131095808D02*
X205446741Y-131143427D01*
X205446741Y-131143427D02*
X205494360Y-131191046D01*
X205494360Y-131191046D02*
X205541979Y-131286284D01*
X205541979Y-131286284D02*
X205541979Y-131571998D01*
X205541979Y-131571998D02*
X205494360Y-131667236D01*
X205494360Y-131667236D02*
X205446741Y-131714856D01*
X205446741Y-131714856D02*
X205351503Y-131762475D01*
X205351503Y-131762475D02*
X205208646Y-131762475D01*
X205922932Y-131714856D02*
X206018170Y-131762475D01*
X206018170Y-131762475D02*
X206208646Y-131762475D01*
X206208646Y-131762475D02*
X206303884Y-131714856D01*
X206303884Y-131714856D02*
X206351503Y-131619617D01*
X206351503Y-131619617D02*
X206351503Y-131571998D01*
X206351503Y-131571998D02*
X206303884Y-131476760D01*
X206303884Y-131476760D02*
X206208646Y-131429141D01*
X206208646Y-131429141D02*
X206065789Y-131429141D01*
X206065789Y-131429141D02*
X205970551Y-131381522D01*
X205970551Y-131381522D02*
X205922932Y-131286284D01*
X205922932Y-131286284D02*
X205922932Y-131238665D01*
X205922932Y-131238665D02*
X205970551Y-131143427D01*
X205970551Y-131143427D02*
X206065789Y-131095808D01*
X206065789Y-131095808D02*
X206208646Y-131095808D01*
X206208646Y-131095808D02*
X206303884Y-131143427D01*
X206780075Y-131762475D02*
X206780075Y-130762475D01*
X207208646Y-131762475D02*
X207208646Y-131238665D01*
X207208646Y-131238665D02*
X207161027Y-131143427D01*
X207161027Y-131143427D02*
X207065789Y-131095808D01*
X207065789Y-131095808D02*
X206922932Y-131095808D01*
X206922932Y-131095808D02*
X206827694Y-131143427D01*
X206827694Y-131143427D02*
X206780075Y-131191046D01*
X208446742Y-131238665D02*
X208780075Y-131238665D01*
X208922932Y-131762475D02*
X208446742Y-131762475D01*
X208446742Y-131762475D02*
X208446742Y-130762475D01*
X208446742Y-130762475D02*
X208922932Y-130762475D01*
X209351504Y-131667236D02*
X209399123Y-131714856D01*
X209399123Y-131714856D02*
X209351504Y-131762475D01*
X209351504Y-131762475D02*
X209303885Y-131714856D01*
X209303885Y-131714856D02*
X209351504Y-131667236D01*
X209351504Y-131667236D02*
X209351504Y-131762475D01*
X210494361Y-130762475D02*
X210732456Y-131762475D01*
X210732456Y-131762475D02*
X210922932Y-131048189D01*
X210922932Y-131048189D02*
X211113408Y-131762475D01*
X211113408Y-131762475D02*
X211351504Y-130762475D01*
X212161027Y-131762475D02*
X212161027Y-131238665D01*
X212161027Y-131238665D02*
X212113408Y-131143427D01*
X212113408Y-131143427D02*
X212018170Y-131095808D01*
X212018170Y-131095808D02*
X211827694Y-131095808D01*
X211827694Y-131095808D02*
X211732456Y-131143427D01*
X212161027Y-131714856D02*
X212065789Y-131762475D01*
X212065789Y-131762475D02*
X211827694Y-131762475D01*
X211827694Y-131762475D02*
X211732456Y-131714856D01*
X211732456Y-131714856D02*
X211684837Y-131619617D01*
X211684837Y-131619617D02*
X211684837Y-131524379D01*
X211684837Y-131524379D02*
X211732456Y-131429141D01*
X211732456Y-131429141D02*
X211827694Y-131381522D01*
X211827694Y-131381522D02*
X212065789Y-131381522D01*
X212065789Y-131381522D02*
X212161027Y-131333903D01*
X212780075Y-131762475D02*
X212684837Y-131714856D01*
X212684837Y-131714856D02*
X212637218Y-131619617D01*
X212637218Y-131619617D02*
X212637218Y-130762475D01*
X213161028Y-131762475D02*
X213161028Y-130762475D01*
X213256266Y-131381522D02*
X213541980Y-131762475D01*
X213541980Y-131095808D02*
X213161028Y-131476760D01*
X214351504Y-131714856D02*
X214256266Y-131762475D01*
X214256266Y-131762475D02*
X214065790Y-131762475D01*
X214065790Y-131762475D02*
X213970552Y-131714856D01*
X213970552Y-131714856D02*
X213922933Y-131619617D01*
X213922933Y-131619617D02*
X213922933Y-131238665D01*
X213922933Y-131238665D02*
X213970552Y-131143427D01*
X213970552Y-131143427D02*
X214065790Y-131095808D01*
X214065790Y-131095808D02*
X214256266Y-131095808D01*
X214256266Y-131095808D02*
X214351504Y-131143427D01*
X214351504Y-131143427D02*
X214399123Y-131238665D01*
X214399123Y-131238665D02*
X214399123Y-131333903D01*
X214399123Y-131333903D02*
X213922933Y-131429141D01*
X214827695Y-131762475D02*
X214827695Y-131095808D01*
X214827695Y-131286284D02*
X214875314Y-131191046D01*
X214875314Y-131191046D02*
X214922933Y-131143427D01*
X214922933Y-131143427D02*
X215018171Y-131095808D01*
X215018171Y-131095808D02*
X215113409Y-131095808D01*
X204589598Y-132372419D02*
X204589598Y-133086704D01*
X204589598Y-133086704D02*
X204541979Y-133229561D01*
X204541979Y-133229561D02*
X204446741Y-133324800D01*
X204446741Y-133324800D02*
X204303884Y-133372419D01*
X204303884Y-133372419D02*
X204208646Y-133372419D01*
X205494360Y-132705752D02*
X205494360Y-133372419D01*
X205065789Y-132705752D02*
X205065789Y-133229561D01*
X205065789Y-133229561D02*
X205113408Y-133324800D01*
X205113408Y-133324800D02*
X205208646Y-133372419D01*
X205208646Y-133372419D02*
X205351503Y-133372419D01*
X205351503Y-133372419D02*
X205446741Y-133324800D01*
X205446741Y-133324800D02*
X205494360Y-133277180D01*
X205970551Y-132705752D02*
X205970551Y-133372419D01*
X205970551Y-132800990D02*
X206018170Y-132753371D01*
X206018170Y-132753371D02*
X206113408Y-132705752D01*
X206113408Y-132705752D02*
X206256265Y-132705752D01*
X206256265Y-132705752D02*
X206351503Y-132753371D01*
X206351503Y-132753371D02*
X206399122Y-132848609D01*
X206399122Y-132848609D02*
X206399122Y-133372419D01*
X207256265Y-133324800D02*
X207161027Y-133372419D01*
X207161027Y-133372419D02*
X206970551Y-133372419D01*
X206970551Y-133372419D02*
X206875313Y-133324800D01*
X206875313Y-133324800D02*
X206827694Y-133229561D01*
X206827694Y-133229561D02*
X206827694Y-132848609D01*
X206827694Y-132848609D02*
X206875313Y-132753371D01*
X206875313Y-132753371D02*
X206970551Y-132705752D01*
X206970551Y-132705752D02*
X207161027Y-132705752D01*
X207161027Y-132705752D02*
X207256265Y-132753371D01*
X207256265Y-132753371D02*
X207303884Y-132848609D01*
X207303884Y-132848609D02*
X207303884Y-132943847D01*
X207303884Y-132943847D02*
X206827694Y-133039085D01*
X208446742Y-132467657D02*
X208494361Y-132420038D01*
X208494361Y-132420038D02*
X208589599Y-132372419D01*
X208589599Y-132372419D02*
X208827694Y-132372419D01*
X208827694Y-132372419D02*
X208922932Y-132420038D01*
X208922932Y-132420038D02*
X208970551Y-132467657D01*
X208970551Y-132467657D02*
X209018170Y-132562895D01*
X209018170Y-132562895D02*
X209018170Y-132658133D01*
X209018170Y-132658133D02*
X208970551Y-132800990D01*
X208970551Y-132800990D02*
X208399123Y-133372419D01*
X208399123Y-133372419D02*
X209018170Y-133372419D01*
X209637218Y-132372419D02*
X209732456Y-132372419D01*
X209732456Y-132372419D02*
X209827694Y-132420038D01*
X209827694Y-132420038D02*
X209875313Y-132467657D01*
X209875313Y-132467657D02*
X209922932Y-132562895D01*
X209922932Y-132562895D02*
X209970551Y-132753371D01*
X209970551Y-132753371D02*
X209970551Y-132991466D01*
X209970551Y-132991466D02*
X209922932Y-133181942D01*
X209922932Y-133181942D02*
X209875313Y-133277180D01*
X209875313Y-133277180D02*
X209827694Y-133324800D01*
X209827694Y-133324800D02*
X209732456Y-133372419D01*
X209732456Y-133372419D02*
X209637218Y-133372419D01*
X209637218Y-133372419D02*
X209541980Y-133324800D01*
X209541980Y-133324800D02*
X209494361Y-133277180D01*
X209494361Y-133277180D02*
X209446742Y-133181942D01*
X209446742Y-133181942D02*
X209399123Y-132991466D01*
X209399123Y-132991466D02*
X209399123Y-132753371D01*
X209399123Y-132753371D02*
X209446742Y-132562895D01*
X209446742Y-132562895D02*
X209494361Y-132467657D01*
X209494361Y-132467657D02*
X209541980Y-132420038D01*
X209541980Y-132420038D02*
X209637218Y-132372419D01*
X210351504Y-132467657D02*
X210399123Y-132420038D01*
X210399123Y-132420038D02*
X210494361Y-132372419D01*
X210494361Y-132372419D02*
X210732456Y-132372419D01*
X210732456Y-132372419D02*
X210827694Y-132420038D01*
X210827694Y-132420038D02*
X210875313Y-132467657D01*
X210875313Y-132467657D02*
X210922932Y-132562895D01*
X210922932Y-132562895D02*
X210922932Y-132658133D01*
X210922932Y-132658133D02*
X210875313Y-132800990D01*
X210875313Y-132800990D02*
X210303885Y-133372419D01*
X210303885Y-133372419D02*
X210922932Y-133372419D01*
X211780075Y-132705752D02*
X211780075Y-133372419D01*
X211541980Y-132324800D02*
X211303885Y-133039085D01*
X211303885Y-133039085D02*
X211922932Y-133039085D01*
X89222819Y-76375312D02*
X89175200Y-76327693D01*
X89175200Y-76327693D02*
X89127580Y-76184836D01*
X89127580Y-76184836D02*
X89127580Y-76089598D01*
X89127580Y-76089598D02*
X89175200Y-75946741D01*
X89175200Y-75946741D02*
X89270438Y-75851503D01*
X89270438Y-75851503D02*
X89365676Y-75803884D01*
X89365676Y-75803884D02*
X89556152Y-75756265D01*
X89556152Y-75756265D02*
X89699009Y-75756265D01*
X89699009Y-75756265D02*
X89889485Y-75803884D01*
X89889485Y-75803884D02*
X89984723Y-75851503D01*
X89984723Y-75851503D02*
X90079961Y-75946741D01*
X90079961Y-75946741D02*
X90127580Y-76089598D01*
X90127580Y-76089598D02*
X90127580Y-76184836D01*
X90127580Y-76184836D02*
X90079961Y-76327693D01*
X90079961Y-76327693D02*
X90032342Y-76375312D01*
X89603771Y-76994360D02*
X89127580Y-76994360D01*
X90127580Y-76661027D02*
X89603771Y-76994360D01*
X89603771Y-76994360D02*
X90127580Y-77327693D01*
X89222819Y-78232455D02*
X89175200Y-78184836D01*
X89175200Y-78184836D02*
X89127580Y-78041979D01*
X89127580Y-78041979D02*
X89127580Y-77946741D01*
X89127580Y-77946741D02*
X89175200Y-77803884D01*
X89175200Y-77803884D02*
X89270438Y-77708646D01*
X89270438Y-77708646D02*
X89365676Y-77661027D01*
X89365676Y-77661027D02*
X89556152Y-77613408D01*
X89556152Y-77613408D02*
X89699009Y-77613408D01*
X89699009Y-77613408D02*
X89889485Y-77661027D01*
X89889485Y-77661027D02*
X89984723Y-77708646D01*
X89984723Y-77708646D02*
X90079961Y-77803884D01*
X90079961Y-77803884D02*
X90127580Y-77946741D01*
X90127580Y-77946741D02*
X90127580Y-78041979D01*
X90127580Y-78041979D02*
X90079961Y-78184836D01*
X90079961Y-78184836D02*
X90032342Y-78232455D01*
X89127580Y-79137217D02*
X89127580Y-78661027D01*
X89127580Y-78661027D02*
X90127580Y-78661027D01*
X89651390Y-79470551D02*
X89651390Y-79803884D01*
X89127580Y-79946741D02*
X89127580Y-79470551D01*
X89127580Y-79470551D02*
X90127580Y-79470551D01*
X90127580Y-79470551D02*
X90127580Y-79946741D01*
X89222819Y-81708646D02*
X89175200Y-81661027D01*
X89175200Y-81661027D02*
X89127580Y-81518170D01*
X89127580Y-81518170D02*
X89127580Y-81422932D01*
X89127580Y-81422932D02*
X89175200Y-81280075D01*
X89175200Y-81280075D02*
X89270438Y-81184837D01*
X89270438Y-81184837D02*
X89365676Y-81137218D01*
X89365676Y-81137218D02*
X89556152Y-81089599D01*
X89556152Y-81089599D02*
X89699009Y-81089599D01*
X89699009Y-81089599D02*
X89889485Y-81137218D01*
X89889485Y-81137218D02*
X89984723Y-81184837D01*
X89984723Y-81184837D02*
X90079961Y-81280075D01*
X90079961Y-81280075D02*
X90127580Y-81422932D01*
X90127580Y-81422932D02*
X90127580Y-81518170D01*
X90127580Y-81518170D02*
X90079961Y-81661027D01*
X90079961Y-81661027D02*
X90032342Y-81708646D01*
X90127580Y-82327694D02*
X90127580Y-82518170D01*
X90127580Y-82518170D02*
X90079961Y-82613408D01*
X90079961Y-82613408D02*
X89984723Y-82708646D01*
X89984723Y-82708646D02*
X89794247Y-82756265D01*
X89794247Y-82756265D02*
X89460914Y-82756265D01*
X89460914Y-82756265D02*
X89270438Y-82708646D01*
X89270438Y-82708646D02*
X89175200Y-82613408D01*
X89175200Y-82613408D02*
X89127580Y-82518170D01*
X89127580Y-82518170D02*
X89127580Y-82327694D01*
X89127580Y-82327694D02*
X89175200Y-82232456D01*
X89175200Y-82232456D02*
X89270438Y-82137218D01*
X89270438Y-82137218D02*
X89460914Y-82089599D01*
X89460914Y-82089599D02*
X89794247Y-82089599D01*
X89794247Y-82089599D02*
X89984723Y-82137218D01*
X89984723Y-82137218D02*
X90079961Y-82232456D01*
X90079961Y-82232456D02*
X90127580Y-82327694D01*
X89127580Y-83661027D02*
X89127580Y-83184837D01*
X89127580Y-83184837D02*
X90127580Y-83184837D01*
X90127580Y-84184837D02*
X90127580Y-84375313D01*
X90127580Y-84375313D02*
X90079961Y-84470551D01*
X90079961Y-84470551D02*
X89984723Y-84565789D01*
X89984723Y-84565789D02*
X89794247Y-84613408D01*
X89794247Y-84613408D02*
X89460914Y-84613408D01*
X89460914Y-84613408D02*
X89270438Y-84565789D01*
X89270438Y-84565789D02*
X89175200Y-84470551D01*
X89175200Y-84470551D02*
X89127580Y-84375313D01*
X89127580Y-84375313D02*
X89127580Y-84184837D01*
X89127580Y-84184837D02*
X89175200Y-84089599D01*
X89175200Y-84089599D02*
X89270438Y-83994361D01*
X89270438Y-83994361D02*
X89460914Y-83946742D01*
X89460914Y-83946742D02*
X89794247Y-83946742D01*
X89794247Y-83946742D02*
X89984723Y-83994361D01*
X89984723Y-83994361D02*
X90079961Y-84089599D01*
X90079961Y-84089599D02*
X90127580Y-84184837D01*
X89127580Y-85613408D02*
X89603771Y-85280075D01*
X89127580Y-85041980D02*
X90127580Y-85041980D01*
X90127580Y-85041980D02*
X90127580Y-85422932D01*
X90127580Y-85422932D02*
X90079961Y-85518170D01*
X90079961Y-85518170D02*
X90032342Y-85565789D01*
X90032342Y-85565789D02*
X89937104Y-85613408D01*
X89937104Y-85613408D02*
X89794247Y-85613408D01*
X89794247Y-85613408D02*
X89699009Y-85565789D01*
X89699009Y-85565789D02*
X89651390Y-85518170D01*
X89651390Y-85518170D02*
X89603771Y-85422932D01*
X89603771Y-85422932D02*
X89603771Y-85041980D01*
D11*
X156238095Y-103254819D02*
X156238095Y-102254819D01*
X156238095Y-102731009D02*
X156809523Y-102731009D01*
X156809523Y-103254819D02*
X156809523Y-102254819D01*
X157809523Y-103254819D02*
X157238095Y-103254819D01*
X157523809Y-103254819D02*
X157523809Y-102254819D01*
X157523809Y-102254819D02*
X157428571Y-102397676D01*
X157428571Y-102397676D02*
X157333333Y-102492914D01*
X157333333Y-102492914D02*
X157238095Y-102540533D01*
X213738095Y-143254819D02*
X213738095Y-142254819D01*
X213738095Y-142731009D02*
X214309523Y-142731009D01*
X214309523Y-143254819D02*
X214309523Y-142254819D01*
X214690476Y-142254819D02*
X215309523Y-142254819D01*
X215309523Y-142254819D02*
X214976190Y-142635771D01*
X214976190Y-142635771D02*
X215119047Y-142635771D01*
X215119047Y-142635771D02*
X215214285Y-142683390D01*
X215214285Y-142683390D02*
X215261904Y-142731009D01*
X215261904Y-142731009D02*
X215309523Y-142826247D01*
X215309523Y-142826247D02*
X215309523Y-143064342D01*
X215309523Y-143064342D02*
X215261904Y-143159580D01*
X215261904Y-143159580D02*
X215214285Y-143207200D01*
X215214285Y-143207200D02*
X215119047Y-143254819D01*
X215119047Y-143254819D02*
X214833333Y-143254819D01*
X214833333Y-143254819D02*
X214738095Y-143207200D01*
X214738095Y-143207200D02*
X214690476Y-143159580D01*
X133954819Y-142238094D02*
X132954819Y-142238094D01*
X132954819Y-142238094D02*
X132954819Y-141999999D01*
X132954819Y-141999999D02*
X133002438Y-141857142D01*
X133002438Y-141857142D02*
X133097676Y-141761904D01*
X133097676Y-141761904D02*
X133192914Y-141714285D01*
X133192914Y-141714285D02*
X133383390Y-141666666D01*
X133383390Y-141666666D02*
X133526247Y-141666666D01*
X133526247Y-141666666D02*
X133716723Y-141714285D01*
X133716723Y-141714285D02*
X133811961Y-141761904D01*
X133811961Y-141761904D02*
X133907200Y-141857142D01*
X133907200Y-141857142D02*
X133954819Y-141999999D01*
X133954819Y-141999999D02*
X133954819Y-142238094D01*
X133050057Y-141285713D02*
X133002438Y-141238094D01*
X133002438Y-141238094D02*
X132954819Y-141142856D01*
X132954819Y-141142856D02*
X132954819Y-140904761D01*
X132954819Y-140904761D02*
X133002438Y-140809523D01*
X133002438Y-140809523D02*
X133050057Y-140761904D01*
X133050057Y-140761904D02*
X133145295Y-140714285D01*
X133145295Y-140714285D02*
X133240533Y-140714285D01*
X133240533Y-140714285D02*
X133383390Y-140761904D01*
X133383390Y-140761904D02*
X133954819Y-141333332D01*
X133954819Y-141333332D02*
X133954819Y-140714285D01*
X213738095Y-60754819D02*
X213738095Y-59754819D01*
X213738095Y-60231009D02*
X214309523Y-60231009D01*
X214309523Y-60754819D02*
X214309523Y-59754819D01*
X214738095Y-59850057D02*
X214785714Y-59802438D01*
X214785714Y-59802438D02*
X214880952Y-59754819D01*
X214880952Y-59754819D02*
X215119047Y-59754819D01*
X215119047Y-59754819D02*
X215214285Y-59802438D01*
X215214285Y-59802438D02*
X215261904Y-59850057D01*
X215261904Y-59850057D02*
X215309523Y-59945295D01*
X215309523Y-59945295D02*
X215309523Y-60040533D01*
X215309523Y-60040533D02*
X215261904Y-60183390D01*
X215261904Y-60183390D02*
X214690476Y-60754819D01*
X214690476Y-60754819D02*
X215309523Y-60754819D01*
X172761905Y-64454819D02*
X172761905Y-63454819D01*
X172761905Y-63454819D02*
X173000000Y-63454819D01*
X173000000Y-63454819D02*
X173142857Y-63502438D01*
X173142857Y-63502438D02*
X173238095Y-63597676D01*
X173238095Y-63597676D02*
X173285714Y-63692914D01*
X173285714Y-63692914D02*
X173333333Y-63883390D01*
X173333333Y-63883390D02*
X173333333Y-64026247D01*
X173333333Y-64026247D02*
X173285714Y-64216723D01*
X173285714Y-64216723D02*
X173238095Y-64311961D01*
X173238095Y-64311961D02*
X173142857Y-64407200D01*
X173142857Y-64407200D02*
X173000000Y-64454819D01*
X173000000Y-64454819D02*
X172761905Y-64454819D01*
X174285714Y-64454819D02*
X173714286Y-64454819D01*
X174000000Y-64454819D02*
X174000000Y-63454819D01*
X174000000Y-63454819D02*
X173904762Y-63597676D01*
X173904762Y-63597676D02*
X173809524Y-63692914D01*
X173809524Y-63692914D02*
X173714286Y-63740533D01*
X130774819Y-65250594D02*
X129774819Y-65250594D01*
X129774819Y-65250594D02*
X129774819Y-65012499D01*
X129774819Y-65012499D02*
X129822438Y-64869642D01*
X129822438Y-64869642D02*
X129917676Y-64774404D01*
X129917676Y-64774404D02*
X130012914Y-64726785D01*
X130012914Y-64726785D02*
X130203390Y-64679166D01*
X130203390Y-64679166D02*
X130346247Y-64679166D01*
X130346247Y-64679166D02*
X130536723Y-64726785D01*
X130536723Y-64726785D02*
X130631961Y-64774404D01*
X130631961Y-64774404D02*
X130727200Y-64869642D01*
X130727200Y-64869642D02*
X130774819Y-65012499D01*
X130774819Y-65012499D02*
X130774819Y-65250594D01*
X129774819Y-64345832D02*
X129774819Y-63679166D01*
X129774819Y-63679166D02*
X130774819Y-64107737D01*
X205023333Y-111544819D02*
X204690000Y-111068628D01*
X204451905Y-111544819D02*
X204451905Y-110544819D01*
X204451905Y-110544819D02*
X204832857Y-110544819D01*
X204832857Y-110544819D02*
X204928095Y-110592438D01*
X204928095Y-110592438D02*
X204975714Y-110640057D01*
X204975714Y-110640057D02*
X205023333Y-110735295D01*
X205023333Y-110735295D02*
X205023333Y-110878152D01*
X205023333Y-110878152D02*
X204975714Y-110973390D01*
X204975714Y-110973390D02*
X204928095Y-111021009D01*
X204928095Y-111021009D02*
X204832857Y-111068628D01*
X204832857Y-111068628D02*
X204451905Y-111068628D01*
X205880476Y-110544819D02*
X205690000Y-110544819D01*
X205690000Y-110544819D02*
X205594762Y-110592438D01*
X205594762Y-110592438D02*
X205547143Y-110640057D01*
X205547143Y-110640057D02*
X205451905Y-110782914D01*
X205451905Y-110782914D02*
X205404286Y-110973390D01*
X205404286Y-110973390D02*
X205404286Y-111354342D01*
X205404286Y-111354342D02*
X205451905Y-111449580D01*
X205451905Y-111449580D02*
X205499524Y-111497200D01*
X205499524Y-111497200D02*
X205594762Y-111544819D01*
X205594762Y-111544819D02*
X205785238Y-111544819D01*
X205785238Y-111544819D02*
X205880476Y-111497200D01*
X205880476Y-111497200D02*
X205928095Y-111449580D01*
X205928095Y-111449580D02*
X205975714Y-111354342D01*
X205975714Y-111354342D02*
X205975714Y-111116247D01*
X205975714Y-111116247D02*
X205928095Y-111021009D01*
X205928095Y-111021009D02*
X205880476Y-110973390D01*
X205880476Y-110973390D02*
X205785238Y-110925771D01*
X205785238Y-110925771D02*
X205594762Y-110925771D01*
X205594762Y-110925771D02*
X205499524Y-110973390D01*
X205499524Y-110973390D02*
X205451905Y-111021009D01*
X205451905Y-111021009D02*
X205404286Y-111116247D01*
X133954819Y-134166666D02*
X133478628Y-134499999D01*
X133954819Y-134738094D02*
X132954819Y-134738094D01*
X132954819Y-134738094D02*
X132954819Y-134357142D01*
X132954819Y-134357142D02*
X133002438Y-134261904D01*
X133002438Y-134261904D02*
X133050057Y-134214285D01*
X133050057Y-134214285D02*
X133145295Y-134166666D01*
X133145295Y-134166666D02*
X133288152Y-134166666D01*
X133288152Y-134166666D02*
X133383390Y-134214285D01*
X133383390Y-134214285D02*
X133431009Y-134261904D01*
X133431009Y-134261904D02*
X133478628Y-134357142D01*
X133478628Y-134357142D02*
X133478628Y-134738094D01*
X133954819Y-133690475D02*
X133954819Y-133499999D01*
X133954819Y-133499999D02*
X133907200Y-133404761D01*
X133907200Y-133404761D02*
X133859580Y-133357142D01*
X133859580Y-133357142D02*
X133716723Y-133261904D01*
X133716723Y-133261904D02*
X133526247Y-133214285D01*
X133526247Y-133214285D02*
X133145295Y-133214285D01*
X133145295Y-133214285D02*
X133050057Y-133261904D01*
X133050057Y-133261904D02*
X133002438Y-133309523D01*
X133002438Y-133309523D02*
X132954819Y-133404761D01*
X132954819Y-133404761D02*
X132954819Y-133595237D01*
X132954819Y-133595237D02*
X133002438Y-133690475D01*
X133002438Y-133690475D02*
X133050057Y-133738094D01*
X133050057Y-133738094D02*
X133145295Y-133785713D01*
X133145295Y-133785713D02*
X133383390Y-133785713D01*
X133383390Y-133785713D02*
X133478628Y-133738094D01*
X133478628Y-133738094D02*
X133526247Y-133690475D01*
X133526247Y-133690475D02*
X133573866Y-133595237D01*
X133573866Y-133595237D02*
X133573866Y-133404761D01*
X133573866Y-133404761D02*
X133526247Y-133309523D01*
X133526247Y-133309523D02*
X133478628Y-133261904D01*
X133478628Y-133261904D02*
X133383390Y-133214285D01*
X148954819Y-135142857D02*
X148478628Y-135476190D01*
X148954819Y-135714285D02*
X147954819Y-135714285D01*
X147954819Y-135714285D02*
X147954819Y-135333333D01*
X147954819Y-135333333D02*
X148002438Y-135238095D01*
X148002438Y-135238095D02*
X148050057Y-135190476D01*
X148050057Y-135190476D02*
X148145295Y-135142857D01*
X148145295Y-135142857D02*
X148288152Y-135142857D01*
X148288152Y-135142857D02*
X148383390Y-135190476D01*
X148383390Y-135190476D02*
X148431009Y-135238095D01*
X148431009Y-135238095D02*
X148478628Y-135333333D01*
X148478628Y-135333333D02*
X148478628Y-135714285D01*
X148954819Y-134190476D02*
X148954819Y-134761904D01*
X148954819Y-134476190D02*
X147954819Y-134476190D01*
X147954819Y-134476190D02*
X148097676Y-134571428D01*
X148097676Y-134571428D02*
X148192914Y-134666666D01*
X148192914Y-134666666D02*
X148240533Y-134761904D01*
X148050057Y-133809523D02*
X148002438Y-133761904D01*
X148002438Y-133761904D02*
X147954819Y-133666666D01*
X147954819Y-133666666D02*
X147954819Y-133428571D01*
X147954819Y-133428571D02*
X148002438Y-133333333D01*
X148002438Y-133333333D02*
X148050057Y-133285714D01*
X148050057Y-133285714D02*
X148145295Y-133238095D01*
X148145295Y-133238095D02*
X148240533Y-133238095D01*
X148240533Y-133238095D02*
X148383390Y-133285714D01*
X148383390Y-133285714D02*
X148954819Y-133857142D01*
X148954819Y-133857142D02*
X148954819Y-133238095D01*
X101166666Y-69454819D02*
X101166666Y-70169104D01*
X101166666Y-70169104D02*
X101119047Y-70311961D01*
X101119047Y-70311961D02*
X101023809Y-70407200D01*
X101023809Y-70407200D02*
X100880952Y-70454819D01*
X100880952Y-70454819D02*
X100785714Y-70454819D01*
X102166666Y-70454819D02*
X101595238Y-70454819D01*
X101880952Y-70454819D02*
X101880952Y-69454819D01*
X101880952Y-69454819D02*
X101785714Y-69597676D01*
X101785714Y-69597676D02*
X101690476Y-69692914D01*
X101690476Y-69692914D02*
X101595238Y-69740533D01*
X89238095Y-60754819D02*
X89238095Y-59754819D01*
X89238095Y-60231009D02*
X89809523Y-60231009D01*
X89809523Y-60754819D02*
X89809523Y-59754819D01*
X90714285Y-60088152D02*
X90714285Y-60754819D01*
X90476190Y-59707200D02*
X90238095Y-60421485D01*
X90238095Y-60421485D02*
X90857142Y-60421485D01*
X208990057Y-109365238D02*
X208942438Y-109460476D01*
X208942438Y-109460476D02*
X208847200Y-109555714D01*
X208847200Y-109555714D02*
X208704342Y-109698571D01*
X208704342Y-109698571D02*
X208656723Y-109793809D01*
X208656723Y-109793809D02*
X208656723Y-109889047D01*
X208894819Y-109841428D02*
X208847200Y-109936666D01*
X208847200Y-109936666D02*
X208751961Y-110031904D01*
X208751961Y-110031904D02*
X208561485Y-110079523D01*
X208561485Y-110079523D02*
X208228152Y-110079523D01*
X208228152Y-110079523D02*
X208037676Y-110031904D01*
X208037676Y-110031904D02*
X207942438Y-109936666D01*
X207942438Y-109936666D02*
X207894819Y-109841428D01*
X207894819Y-109841428D02*
X207894819Y-109650952D01*
X207894819Y-109650952D02*
X207942438Y-109555714D01*
X207942438Y-109555714D02*
X208037676Y-109460476D01*
X208037676Y-109460476D02*
X208228152Y-109412857D01*
X208228152Y-109412857D02*
X208561485Y-109412857D01*
X208561485Y-109412857D02*
X208751961Y-109460476D01*
X208751961Y-109460476D02*
X208847200Y-109555714D01*
X208847200Y-109555714D02*
X208894819Y-109650952D01*
X208894819Y-109650952D02*
X208894819Y-109841428D01*
X207990057Y-109031904D02*
X207942438Y-108984285D01*
X207942438Y-108984285D02*
X207894819Y-108889047D01*
X207894819Y-108889047D02*
X207894819Y-108650952D01*
X207894819Y-108650952D02*
X207942438Y-108555714D01*
X207942438Y-108555714D02*
X207990057Y-108508095D01*
X207990057Y-108508095D02*
X208085295Y-108460476D01*
X208085295Y-108460476D02*
X208180533Y-108460476D01*
X208180533Y-108460476D02*
X208323390Y-108508095D01*
X208323390Y-108508095D02*
X208894819Y-109079523D01*
X208894819Y-109079523D02*
X208894819Y-108460476D01*
X101454819Y-107416666D02*
X100978628Y-107749999D01*
X101454819Y-107988094D02*
X100454819Y-107988094D01*
X100454819Y-107988094D02*
X100454819Y-107607142D01*
X100454819Y-107607142D02*
X100502438Y-107511904D01*
X100502438Y-107511904D02*
X100550057Y-107464285D01*
X100550057Y-107464285D02*
X100645295Y-107416666D01*
X100645295Y-107416666D02*
X100788152Y-107416666D01*
X100788152Y-107416666D02*
X100883390Y-107464285D01*
X100883390Y-107464285D02*
X100931009Y-107511904D01*
X100931009Y-107511904D02*
X100978628Y-107607142D01*
X100978628Y-107607142D02*
X100978628Y-107988094D01*
X100454819Y-107083332D02*
X100454819Y-106464285D01*
X100454819Y-106464285D02*
X100835771Y-106797618D01*
X100835771Y-106797618D02*
X100835771Y-106654761D01*
X100835771Y-106654761D02*
X100883390Y-106559523D01*
X100883390Y-106559523D02*
X100931009Y-106511904D01*
X100931009Y-106511904D02*
X101026247Y-106464285D01*
X101026247Y-106464285D02*
X101264342Y-106464285D01*
X101264342Y-106464285D02*
X101359580Y-106511904D01*
X101359580Y-106511904D02*
X101407200Y-106559523D01*
X101407200Y-106559523D02*
X101454819Y-106654761D01*
X101454819Y-106654761D02*
X101454819Y-106940475D01*
X101454819Y-106940475D02*
X101407200Y-107035713D01*
X101407200Y-107035713D02*
X101359580Y-107083332D01*
X101454819Y-87166666D02*
X100978628Y-87499999D01*
X101454819Y-87738094D02*
X100454819Y-87738094D01*
X100454819Y-87738094D02*
X100454819Y-87357142D01*
X100454819Y-87357142D02*
X100502438Y-87261904D01*
X100502438Y-87261904D02*
X100550057Y-87214285D01*
X100550057Y-87214285D02*
X100645295Y-87166666D01*
X100645295Y-87166666D02*
X100788152Y-87166666D01*
X100788152Y-87166666D02*
X100883390Y-87214285D01*
X100883390Y-87214285D02*
X100931009Y-87261904D01*
X100931009Y-87261904D02*
X100978628Y-87357142D01*
X100978628Y-87357142D02*
X100978628Y-87738094D01*
X100788152Y-86309523D02*
X101454819Y-86309523D01*
X100407200Y-86547618D02*
X101121485Y-86785713D01*
X101121485Y-86785713D02*
X101121485Y-86166666D01*
X156190476Y-63954819D02*
X156190476Y-62954819D01*
X156190476Y-62954819D02*
X156523809Y-63669104D01*
X156523809Y-63669104D02*
X156857142Y-62954819D01*
X156857142Y-62954819D02*
X156857142Y-63954819D01*
X157857142Y-63954819D02*
X157285714Y-63954819D01*
X157571428Y-63954819D02*
X157571428Y-62954819D01*
X157571428Y-62954819D02*
X157476190Y-63097676D01*
X157476190Y-63097676D02*
X157380952Y-63192914D01*
X157380952Y-63192914D02*
X157285714Y-63240533D01*
X101454819Y-127166666D02*
X100978628Y-127499999D01*
X101454819Y-127738094D02*
X100454819Y-127738094D01*
X100454819Y-127738094D02*
X100454819Y-127357142D01*
X100454819Y-127357142D02*
X100502438Y-127261904D01*
X100502438Y-127261904D02*
X100550057Y-127214285D01*
X100550057Y-127214285D02*
X100645295Y-127166666D01*
X100645295Y-127166666D02*
X100788152Y-127166666D01*
X100788152Y-127166666D02*
X100883390Y-127214285D01*
X100883390Y-127214285D02*
X100931009Y-127261904D01*
X100931009Y-127261904D02*
X100978628Y-127357142D01*
X100978628Y-127357142D02*
X100978628Y-127738094D01*
X101454819Y-126214285D02*
X101454819Y-126785713D01*
X101454819Y-126499999D02*
X100454819Y-126499999D01*
X100454819Y-126499999D02*
X100597676Y-126595237D01*
X100597676Y-126595237D02*
X100692914Y-126690475D01*
X100692914Y-126690475D02*
X100740533Y-126785713D01*
X94592800Y-97666667D02*
X94545180Y-97809524D01*
X94545180Y-97809524D02*
X94545180Y-98047619D01*
X94545180Y-98047619D02*
X94592800Y-98142857D01*
X94592800Y-98142857D02*
X94640419Y-98190476D01*
X94640419Y-98190476D02*
X94735657Y-98238095D01*
X94735657Y-98238095D02*
X94830895Y-98238095D01*
X94830895Y-98238095D02*
X94926133Y-98190476D01*
X94926133Y-98190476D02*
X94973752Y-98142857D01*
X94973752Y-98142857D02*
X95021371Y-98047619D01*
X95021371Y-98047619D02*
X95068990Y-97857143D01*
X95068990Y-97857143D02*
X95116609Y-97761905D01*
X95116609Y-97761905D02*
X95164228Y-97714286D01*
X95164228Y-97714286D02*
X95259466Y-97666667D01*
X95259466Y-97666667D02*
X95354704Y-97666667D01*
X95354704Y-97666667D02*
X95449942Y-97714286D01*
X95449942Y-97714286D02*
X95497561Y-97761905D01*
X95497561Y-97761905D02*
X95545180Y-97857143D01*
X95545180Y-97857143D02*
X95545180Y-98095238D01*
X95545180Y-98095238D02*
X95497561Y-98238095D01*
X95545180Y-98571429D02*
X94545180Y-98809524D01*
X94545180Y-98809524D02*
X95259466Y-99000000D01*
X95259466Y-99000000D02*
X94545180Y-99190476D01*
X94545180Y-99190476D02*
X95545180Y-99428572D01*
X95545180Y-99714286D02*
X95545180Y-100333333D01*
X95545180Y-100333333D02*
X95164228Y-100000000D01*
X95164228Y-100000000D02*
X95164228Y-100142857D01*
X95164228Y-100142857D02*
X95116609Y-100238095D01*
X95116609Y-100238095D02*
X95068990Y-100285714D01*
X95068990Y-100285714D02*
X94973752Y-100333333D01*
X94973752Y-100333333D02*
X94735657Y-100333333D01*
X94735657Y-100333333D02*
X94640419Y-100285714D01*
X94640419Y-100285714D02*
X94592800Y-100238095D01*
X94592800Y-100238095D02*
X94545180Y-100142857D01*
X94545180Y-100142857D02*
X94545180Y-99857143D01*
X94545180Y-99857143D02*
X94592800Y-99761905D01*
X94592800Y-99761905D02*
X94640419Y-99714286D01*
X205023333Y-121544819D02*
X204690000Y-121068628D01*
X204451905Y-121544819D02*
X204451905Y-120544819D01*
X204451905Y-120544819D02*
X204832857Y-120544819D01*
X204832857Y-120544819D02*
X204928095Y-120592438D01*
X204928095Y-120592438D02*
X204975714Y-120640057D01*
X204975714Y-120640057D02*
X205023333Y-120735295D01*
X205023333Y-120735295D02*
X205023333Y-120878152D01*
X205023333Y-120878152D02*
X204975714Y-120973390D01*
X204975714Y-120973390D02*
X204928095Y-121021009D01*
X204928095Y-121021009D02*
X204832857Y-121068628D01*
X204832857Y-121068628D02*
X204451905Y-121068628D01*
X205928095Y-120544819D02*
X205451905Y-120544819D01*
X205451905Y-120544819D02*
X205404286Y-121021009D01*
X205404286Y-121021009D02*
X205451905Y-120973390D01*
X205451905Y-120973390D02*
X205547143Y-120925771D01*
X205547143Y-120925771D02*
X205785238Y-120925771D01*
X205785238Y-120925771D02*
X205880476Y-120973390D01*
X205880476Y-120973390D02*
X205928095Y-121021009D01*
X205928095Y-121021009D02*
X205975714Y-121116247D01*
X205975714Y-121116247D02*
X205975714Y-121354342D01*
X205975714Y-121354342D02*
X205928095Y-121449580D01*
X205928095Y-121449580D02*
X205880476Y-121497200D01*
X205880476Y-121497200D02*
X205785238Y-121544819D01*
X205785238Y-121544819D02*
X205547143Y-121544819D01*
X205547143Y-121544819D02*
X205451905Y-121497200D01*
X205451905Y-121497200D02*
X205404286Y-121449580D01*
X125274819Y-65238094D02*
X124274819Y-65238094D01*
X124274819Y-65238094D02*
X124274819Y-64999999D01*
X124274819Y-64999999D02*
X124322438Y-64857142D01*
X124322438Y-64857142D02*
X124417676Y-64761904D01*
X124417676Y-64761904D02*
X124512914Y-64714285D01*
X124512914Y-64714285D02*
X124703390Y-64666666D01*
X124703390Y-64666666D02*
X124846247Y-64666666D01*
X124846247Y-64666666D02*
X125036723Y-64714285D01*
X125036723Y-64714285D02*
X125131961Y-64761904D01*
X125131961Y-64761904D02*
X125227200Y-64857142D01*
X125227200Y-64857142D02*
X125274819Y-64999999D01*
X125274819Y-64999999D02*
X125274819Y-65238094D01*
X124274819Y-63809523D02*
X124274819Y-63999999D01*
X124274819Y-63999999D02*
X124322438Y-64095237D01*
X124322438Y-64095237D02*
X124370057Y-64142856D01*
X124370057Y-64142856D02*
X124512914Y-64238094D01*
X124512914Y-64238094D02*
X124703390Y-64285713D01*
X124703390Y-64285713D02*
X125084342Y-64285713D01*
X125084342Y-64285713D02*
X125179580Y-64238094D01*
X125179580Y-64238094D02*
X125227200Y-64190475D01*
X125227200Y-64190475D02*
X125274819Y-64095237D01*
X125274819Y-64095237D02*
X125274819Y-63904761D01*
X125274819Y-63904761D02*
X125227200Y-63809523D01*
X125227200Y-63809523D02*
X125179580Y-63761904D01*
X125179580Y-63761904D02*
X125084342Y-63714285D01*
X125084342Y-63714285D02*
X124846247Y-63714285D01*
X124846247Y-63714285D02*
X124751009Y-63761904D01*
X124751009Y-63761904D02*
X124703390Y-63809523D01*
X124703390Y-63809523D02*
X124655771Y-63904761D01*
X124655771Y-63904761D02*
X124655771Y-64095237D01*
X124655771Y-64095237D02*
X124703390Y-64190475D01*
X124703390Y-64190475D02*
X124751009Y-64238094D01*
X124751009Y-64238094D02*
X124846247Y-64285713D01*
X176238095Y-122139819D02*
X176238095Y-122949342D01*
X176238095Y-122949342D02*
X176285714Y-123044580D01*
X176285714Y-123044580D02*
X176333333Y-123092200D01*
X176333333Y-123092200D02*
X176428571Y-123139819D01*
X176428571Y-123139819D02*
X176619047Y-123139819D01*
X176619047Y-123139819D02*
X176714285Y-123092200D01*
X176714285Y-123092200D02*
X176761904Y-123044580D01*
X176761904Y-123044580D02*
X176809523Y-122949342D01*
X176809523Y-122949342D02*
X176809523Y-122139819D01*
X177190476Y-122139819D02*
X177809523Y-122139819D01*
X177809523Y-122139819D02*
X177476190Y-122520771D01*
X177476190Y-122520771D02*
X177619047Y-122520771D01*
X177619047Y-122520771D02*
X177714285Y-122568390D01*
X177714285Y-122568390D02*
X177761904Y-122616009D01*
X177761904Y-122616009D02*
X177809523Y-122711247D01*
X177809523Y-122711247D02*
X177809523Y-122949342D01*
X177809523Y-122949342D02*
X177761904Y-123044580D01*
X177761904Y-123044580D02*
X177714285Y-123092200D01*
X177714285Y-123092200D02*
X177619047Y-123139819D01*
X177619047Y-123139819D02*
X177333333Y-123139819D01*
X177333333Y-123139819D02*
X177238095Y-123092200D01*
X177238095Y-123092200D02*
X177190476Y-123044580D01*
X156454819Y-134642857D02*
X155978628Y-134976190D01*
X156454819Y-135214285D02*
X155454819Y-135214285D01*
X155454819Y-135214285D02*
X155454819Y-134833333D01*
X155454819Y-134833333D02*
X155502438Y-134738095D01*
X155502438Y-134738095D02*
X155550057Y-134690476D01*
X155550057Y-134690476D02*
X155645295Y-134642857D01*
X155645295Y-134642857D02*
X155788152Y-134642857D01*
X155788152Y-134642857D02*
X155883390Y-134690476D01*
X155883390Y-134690476D02*
X155931009Y-134738095D01*
X155931009Y-134738095D02*
X155978628Y-134833333D01*
X155978628Y-134833333D02*
X155978628Y-135214285D01*
X156454819Y-133690476D02*
X156454819Y-134261904D01*
X156454819Y-133976190D02*
X155454819Y-133976190D01*
X155454819Y-133976190D02*
X155597676Y-134071428D01*
X155597676Y-134071428D02*
X155692914Y-134166666D01*
X155692914Y-134166666D02*
X155740533Y-134261904D01*
X155454819Y-133357142D02*
X155454819Y-132738095D01*
X155454819Y-132738095D02*
X155835771Y-133071428D01*
X155835771Y-133071428D02*
X155835771Y-132928571D01*
X155835771Y-132928571D02*
X155883390Y-132833333D01*
X155883390Y-132833333D02*
X155931009Y-132785714D01*
X155931009Y-132785714D02*
X156026247Y-132738095D01*
X156026247Y-132738095D02*
X156264342Y-132738095D01*
X156264342Y-132738095D02*
X156359580Y-132785714D01*
X156359580Y-132785714D02*
X156407200Y-132833333D01*
X156407200Y-132833333D02*
X156454819Y-132928571D01*
X156454819Y-132928571D02*
X156454819Y-133214285D01*
X156454819Y-133214285D02*
X156407200Y-133309523D01*
X156407200Y-133309523D02*
X156359580Y-133357142D01*
X148954819Y-142238094D02*
X147954819Y-142238094D01*
X147954819Y-142238094D02*
X147954819Y-141999999D01*
X147954819Y-141999999D02*
X148002438Y-141857142D01*
X148002438Y-141857142D02*
X148097676Y-141761904D01*
X148097676Y-141761904D02*
X148192914Y-141714285D01*
X148192914Y-141714285D02*
X148383390Y-141666666D01*
X148383390Y-141666666D02*
X148526247Y-141666666D01*
X148526247Y-141666666D02*
X148716723Y-141714285D01*
X148716723Y-141714285D02*
X148811961Y-141761904D01*
X148811961Y-141761904D02*
X148907200Y-141857142D01*
X148907200Y-141857142D02*
X148954819Y-141999999D01*
X148954819Y-141999999D02*
X148954819Y-142238094D01*
X148288152Y-140809523D02*
X148954819Y-140809523D01*
X147907200Y-141047618D02*
X148621485Y-141285713D01*
X148621485Y-141285713D02*
X148621485Y-140666666D01*
X156274819Y-142238094D02*
X155274819Y-142238094D01*
X155274819Y-142238094D02*
X155274819Y-141999999D01*
X155274819Y-141999999D02*
X155322438Y-141857142D01*
X155322438Y-141857142D02*
X155417676Y-141761904D01*
X155417676Y-141761904D02*
X155512914Y-141714285D01*
X155512914Y-141714285D02*
X155703390Y-141666666D01*
X155703390Y-141666666D02*
X155846247Y-141666666D01*
X155846247Y-141666666D02*
X156036723Y-141714285D01*
X156036723Y-141714285D02*
X156131961Y-141761904D01*
X156131961Y-141761904D02*
X156227200Y-141857142D01*
X156227200Y-141857142D02*
X156274819Y-141999999D01*
X156274819Y-141999999D02*
X156274819Y-142238094D01*
X155274819Y-140761904D02*
X155274819Y-141238094D01*
X155274819Y-141238094D02*
X155751009Y-141285713D01*
X155751009Y-141285713D02*
X155703390Y-141238094D01*
X155703390Y-141238094D02*
X155655771Y-141142856D01*
X155655771Y-141142856D02*
X155655771Y-140904761D01*
X155655771Y-140904761D02*
X155703390Y-140809523D01*
X155703390Y-140809523D02*
X155751009Y-140761904D01*
X155751009Y-140761904D02*
X155846247Y-140714285D01*
X155846247Y-140714285D02*
X156084342Y-140714285D01*
X156084342Y-140714285D02*
X156179580Y-140761904D01*
X156179580Y-140761904D02*
X156227200Y-140809523D01*
X156227200Y-140809523D02*
X156274819Y-140904761D01*
X156274819Y-140904761D02*
X156274819Y-141142856D01*
X156274819Y-141142856D02*
X156227200Y-141238094D01*
X156227200Y-141238094D02*
X156179580Y-141285713D01*
X156274819Y-127142857D02*
X155798628Y-127476190D01*
X156274819Y-127714285D02*
X155274819Y-127714285D01*
X155274819Y-127714285D02*
X155274819Y-127333333D01*
X155274819Y-127333333D02*
X155322438Y-127238095D01*
X155322438Y-127238095D02*
X155370057Y-127190476D01*
X155370057Y-127190476D02*
X155465295Y-127142857D01*
X155465295Y-127142857D02*
X155608152Y-127142857D01*
X155608152Y-127142857D02*
X155703390Y-127190476D01*
X155703390Y-127190476D02*
X155751009Y-127238095D01*
X155751009Y-127238095D02*
X155798628Y-127333333D01*
X155798628Y-127333333D02*
X155798628Y-127714285D01*
X156274819Y-126190476D02*
X156274819Y-126761904D01*
X156274819Y-126476190D02*
X155274819Y-126476190D01*
X155274819Y-126476190D02*
X155417676Y-126571428D01*
X155417676Y-126571428D02*
X155512914Y-126666666D01*
X155512914Y-126666666D02*
X155560533Y-126761904D01*
X156274819Y-125238095D02*
X156274819Y-125809523D01*
X156274819Y-125523809D02*
X155274819Y-125523809D01*
X155274819Y-125523809D02*
X155417676Y-125619047D01*
X155417676Y-125619047D02*
X155512914Y-125714285D01*
X155512914Y-125714285D02*
X155560533Y-125809523D01*
X85738095Y-143954819D02*
X85738095Y-142954819D01*
X85738095Y-143431009D02*
X86309523Y-143431009D01*
X86309523Y-143954819D02*
X86309523Y-142954819D01*
X87261904Y-142954819D02*
X86785714Y-142954819D01*
X86785714Y-142954819D02*
X86738095Y-143431009D01*
X86738095Y-143431009D02*
X86785714Y-143383390D01*
X86785714Y-143383390D02*
X86880952Y-143335771D01*
X86880952Y-143335771D02*
X87119047Y-143335771D01*
X87119047Y-143335771D02*
X87214285Y-143383390D01*
X87214285Y-143383390D02*
X87261904Y-143431009D01*
X87261904Y-143431009D02*
X87309523Y-143526247D01*
X87309523Y-143526247D02*
X87309523Y-143764342D01*
X87309523Y-143764342D02*
X87261904Y-143859580D01*
X87261904Y-143859580D02*
X87214285Y-143907200D01*
X87214285Y-143907200D02*
X87119047Y-143954819D01*
X87119047Y-143954819D02*
X86880952Y-143954819D01*
X86880952Y-143954819D02*
X86785714Y-143907200D01*
X86785714Y-143907200D02*
X86738095Y-143859580D01*
X130938095Y-100054819D02*
X130938095Y-100864342D01*
X130938095Y-100864342D02*
X130985714Y-100959580D01*
X130985714Y-100959580D02*
X131033333Y-101007200D01*
X131033333Y-101007200D02*
X131128571Y-101054819D01*
X131128571Y-101054819D02*
X131319047Y-101054819D01*
X131319047Y-101054819D02*
X131414285Y-101007200D01*
X131414285Y-101007200D02*
X131461904Y-100959580D01*
X131461904Y-100959580D02*
X131509523Y-100864342D01*
X131509523Y-100864342D02*
X131509523Y-100054819D01*
X132509523Y-101054819D02*
X131938095Y-101054819D01*
X132223809Y-101054819D02*
X132223809Y-100054819D01*
X132223809Y-100054819D02*
X132128571Y-100197676D01*
X132128571Y-100197676D02*
X132033333Y-100292914D01*
X132033333Y-100292914D02*
X131938095Y-100340533D01*
D10*
X129761027Y-86372419D02*
X130094360Y-87372419D01*
X130094360Y-87372419D02*
X130427693Y-86372419D01*
X130761027Y-87372419D02*
X130761027Y-86705752D01*
X130761027Y-86372419D02*
X130713408Y-86420038D01*
X130713408Y-86420038D02*
X130761027Y-86467657D01*
X130761027Y-86467657D02*
X130808646Y-86420038D01*
X130808646Y-86420038D02*
X130761027Y-86372419D01*
X130761027Y-86372419D02*
X130761027Y-86467657D01*
X131237217Y-86705752D02*
X131237217Y-87372419D01*
X131237217Y-86800990D02*
X131284836Y-86753371D01*
X131284836Y-86753371D02*
X131380074Y-86705752D01*
X131380074Y-86705752D02*
X131522931Y-86705752D01*
X131522931Y-86705752D02*
X131618169Y-86753371D01*
X131618169Y-86753371D02*
X131665788Y-86848609D01*
X131665788Y-86848609D02*
X131665788Y-87372419D01*
X129861027Y-111772419D02*
X130194360Y-112772419D01*
X130194360Y-112772419D02*
X130527693Y-111772419D01*
X131003884Y-112772419D02*
X130908646Y-112724800D01*
X130908646Y-112724800D02*
X130861027Y-112677180D01*
X130861027Y-112677180D02*
X130813408Y-112581942D01*
X130813408Y-112581942D02*
X130813408Y-112296228D01*
X130813408Y-112296228D02*
X130861027Y-112200990D01*
X130861027Y-112200990D02*
X130908646Y-112153371D01*
X130908646Y-112153371D02*
X131003884Y-112105752D01*
X131003884Y-112105752D02*
X131146741Y-112105752D01*
X131146741Y-112105752D02*
X131241979Y-112153371D01*
X131241979Y-112153371D02*
X131289598Y-112200990D01*
X131289598Y-112200990D02*
X131337217Y-112296228D01*
X131337217Y-112296228D02*
X131337217Y-112581942D01*
X131337217Y-112581942D02*
X131289598Y-112677180D01*
X131289598Y-112677180D02*
X131241979Y-112724800D01*
X131241979Y-112724800D02*
X131146741Y-112772419D01*
X131146741Y-112772419D02*
X131003884Y-112772419D01*
X132194360Y-112105752D02*
X132194360Y-112772419D01*
X131765789Y-112105752D02*
X131765789Y-112629561D01*
X131765789Y-112629561D02*
X131813408Y-112724800D01*
X131813408Y-112724800D02*
X131908646Y-112772419D01*
X131908646Y-112772419D02*
X132051503Y-112772419D01*
X132051503Y-112772419D02*
X132146741Y-112724800D01*
X132146741Y-112724800D02*
X132194360Y-112677180D01*
X132527694Y-112105752D02*
X132908646Y-112105752D01*
X132670551Y-111772419D02*
X132670551Y-112629561D01*
X132670551Y-112629561D02*
X132718170Y-112724800D01*
X132718170Y-112724800D02*
X132813408Y-112772419D01*
X132813408Y-112772419D02*
X132908646Y-112772419D01*
D11*
X208990057Y-99365238D02*
X208942438Y-99460476D01*
X208942438Y-99460476D02*
X208847200Y-99555714D01*
X208847200Y-99555714D02*
X208704342Y-99698571D01*
X208704342Y-99698571D02*
X208656723Y-99793809D01*
X208656723Y-99793809D02*
X208656723Y-99889047D01*
X208894819Y-99841428D02*
X208847200Y-99936666D01*
X208847200Y-99936666D02*
X208751961Y-100031904D01*
X208751961Y-100031904D02*
X208561485Y-100079523D01*
X208561485Y-100079523D02*
X208228152Y-100079523D01*
X208228152Y-100079523D02*
X208037676Y-100031904D01*
X208037676Y-100031904D02*
X207942438Y-99936666D01*
X207942438Y-99936666D02*
X207894819Y-99841428D01*
X207894819Y-99841428D02*
X207894819Y-99650952D01*
X207894819Y-99650952D02*
X207942438Y-99555714D01*
X207942438Y-99555714D02*
X208037676Y-99460476D01*
X208037676Y-99460476D02*
X208228152Y-99412857D01*
X208228152Y-99412857D02*
X208561485Y-99412857D01*
X208561485Y-99412857D02*
X208751961Y-99460476D01*
X208751961Y-99460476D02*
X208847200Y-99555714D01*
X208847200Y-99555714D02*
X208894819Y-99650952D01*
X208894819Y-99650952D02*
X208894819Y-99841428D01*
X207894819Y-99079523D02*
X207894819Y-98460476D01*
X207894819Y-98460476D02*
X208275771Y-98793809D01*
X208275771Y-98793809D02*
X208275771Y-98650952D01*
X208275771Y-98650952D02*
X208323390Y-98555714D01*
X208323390Y-98555714D02*
X208371009Y-98508095D01*
X208371009Y-98508095D02*
X208466247Y-98460476D01*
X208466247Y-98460476D02*
X208704342Y-98460476D01*
X208704342Y-98460476D02*
X208799580Y-98508095D01*
X208799580Y-98508095D02*
X208847200Y-98555714D01*
X208847200Y-98555714D02*
X208894819Y-98650952D01*
X208894819Y-98650952D02*
X208894819Y-98936666D01*
X208894819Y-98936666D02*
X208847200Y-99031904D01*
X208847200Y-99031904D02*
X208799580Y-99079523D01*
X101454819Y-147666666D02*
X100978628Y-147999999D01*
X101454819Y-148238094D02*
X100454819Y-148238094D01*
X100454819Y-148238094D02*
X100454819Y-147857142D01*
X100454819Y-147857142D02*
X100502438Y-147761904D01*
X100502438Y-147761904D02*
X100550057Y-147714285D01*
X100550057Y-147714285D02*
X100645295Y-147666666D01*
X100645295Y-147666666D02*
X100788152Y-147666666D01*
X100788152Y-147666666D02*
X100883390Y-147714285D01*
X100883390Y-147714285D02*
X100931009Y-147761904D01*
X100931009Y-147761904D02*
X100978628Y-147857142D01*
X100978628Y-147857142D02*
X100978628Y-148238094D01*
X100550057Y-147285713D02*
X100502438Y-147238094D01*
X100502438Y-147238094D02*
X100454819Y-147142856D01*
X100454819Y-147142856D02*
X100454819Y-146904761D01*
X100454819Y-146904761D02*
X100502438Y-146809523D01*
X100502438Y-146809523D02*
X100550057Y-146761904D01*
X100550057Y-146761904D02*
X100645295Y-146714285D01*
X100645295Y-146714285D02*
X100740533Y-146714285D01*
X100740533Y-146714285D02*
X100883390Y-146761904D01*
X100883390Y-146761904D02*
X101454819Y-147333332D01*
X101454819Y-147333332D02*
X101454819Y-146714285D01*
X148774819Y-127142857D02*
X148298628Y-127476190D01*
X148774819Y-127714285D02*
X147774819Y-127714285D01*
X147774819Y-127714285D02*
X147774819Y-127333333D01*
X147774819Y-127333333D02*
X147822438Y-127238095D01*
X147822438Y-127238095D02*
X147870057Y-127190476D01*
X147870057Y-127190476D02*
X147965295Y-127142857D01*
X147965295Y-127142857D02*
X148108152Y-127142857D01*
X148108152Y-127142857D02*
X148203390Y-127190476D01*
X148203390Y-127190476D02*
X148251009Y-127238095D01*
X148251009Y-127238095D02*
X148298628Y-127333333D01*
X148298628Y-127333333D02*
X148298628Y-127714285D01*
X148774819Y-126190476D02*
X148774819Y-126761904D01*
X148774819Y-126476190D02*
X147774819Y-126476190D01*
X147774819Y-126476190D02*
X147917676Y-126571428D01*
X147917676Y-126571428D02*
X148012914Y-126666666D01*
X148012914Y-126666666D02*
X148060533Y-126761904D01*
X147774819Y-125571428D02*
X147774819Y-125476190D01*
X147774819Y-125476190D02*
X147822438Y-125380952D01*
X147822438Y-125380952D02*
X147870057Y-125333333D01*
X147870057Y-125333333D02*
X147965295Y-125285714D01*
X147965295Y-125285714D02*
X148155771Y-125238095D01*
X148155771Y-125238095D02*
X148393866Y-125238095D01*
X148393866Y-125238095D02*
X148584342Y-125285714D01*
X148584342Y-125285714D02*
X148679580Y-125333333D01*
X148679580Y-125333333D02*
X148727200Y-125380952D01*
X148727200Y-125380952D02*
X148774819Y-125476190D01*
X148774819Y-125476190D02*
X148774819Y-125571428D01*
X148774819Y-125571428D02*
X148727200Y-125666666D01*
X148727200Y-125666666D02*
X148679580Y-125714285D01*
X148679580Y-125714285D02*
X148584342Y-125761904D01*
X148584342Y-125761904D02*
X148393866Y-125809523D01*
X148393866Y-125809523D02*
X148155771Y-125809523D01*
X148155771Y-125809523D02*
X147965295Y-125761904D01*
X147965295Y-125761904D02*
X147870057Y-125714285D01*
X147870057Y-125714285D02*
X147822438Y-125666666D01*
X147822438Y-125666666D02*
X147774819Y-125571428D01*
X205023333Y-101544819D02*
X204690000Y-101068628D01*
X204451905Y-101544819D02*
X204451905Y-100544819D01*
X204451905Y-100544819D02*
X204832857Y-100544819D01*
X204832857Y-100544819D02*
X204928095Y-100592438D01*
X204928095Y-100592438D02*
X204975714Y-100640057D01*
X204975714Y-100640057D02*
X205023333Y-100735295D01*
X205023333Y-100735295D02*
X205023333Y-100878152D01*
X205023333Y-100878152D02*
X204975714Y-100973390D01*
X204975714Y-100973390D02*
X204928095Y-101021009D01*
X204928095Y-101021009D02*
X204832857Y-101068628D01*
X204832857Y-101068628D02*
X204451905Y-101068628D01*
X205356667Y-100544819D02*
X206023333Y-100544819D01*
X206023333Y-100544819D02*
X205594762Y-101544819D01*
X125274819Y-58642857D02*
X124798628Y-58976190D01*
X125274819Y-59214285D02*
X124274819Y-59214285D01*
X124274819Y-59214285D02*
X124274819Y-58833333D01*
X124274819Y-58833333D02*
X124322438Y-58738095D01*
X124322438Y-58738095D02*
X124370057Y-58690476D01*
X124370057Y-58690476D02*
X124465295Y-58642857D01*
X124465295Y-58642857D02*
X124608152Y-58642857D01*
X124608152Y-58642857D02*
X124703390Y-58690476D01*
X124703390Y-58690476D02*
X124751009Y-58738095D01*
X124751009Y-58738095D02*
X124798628Y-58833333D01*
X124798628Y-58833333D02*
X124798628Y-59214285D01*
X125274819Y-57690476D02*
X125274819Y-58261904D01*
X125274819Y-57976190D02*
X124274819Y-57976190D01*
X124274819Y-57976190D02*
X124417676Y-58071428D01*
X124417676Y-58071428D02*
X124512914Y-58166666D01*
X124512914Y-58166666D02*
X124560533Y-58261904D01*
X124608152Y-56833333D02*
X125274819Y-56833333D01*
X124227200Y-57071428D02*
X124941485Y-57309523D01*
X124941485Y-57309523D02*
X124941485Y-56690476D01*
X141274819Y-142238094D02*
X140274819Y-142238094D01*
X140274819Y-142238094D02*
X140274819Y-141999999D01*
X140274819Y-141999999D02*
X140322438Y-141857142D01*
X140322438Y-141857142D02*
X140417676Y-141761904D01*
X140417676Y-141761904D02*
X140512914Y-141714285D01*
X140512914Y-141714285D02*
X140703390Y-141666666D01*
X140703390Y-141666666D02*
X140846247Y-141666666D01*
X140846247Y-141666666D02*
X141036723Y-141714285D01*
X141036723Y-141714285D02*
X141131961Y-141761904D01*
X141131961Y-141761904D02*
X141227200Y-141857142D01*
X141227200Y-141857142D02*
X141274819Y-141999999D01*
X141274819Y-141999999D02*
X141274819Y-142238094D01*
X140274819Y-141333332D02*
X140274819Y-140714285D01*
X140274819Y-140714285D02*
X140655771Y-141047618D01*
X140655771Y-141047618D02*
X140655771Y-140904761D01*
X140655771Y-140904761D02*
X140703390Y-140809523D01*
X140703390Y-140809523D02*
X140751009Y-140761904D01*
X140751009Y-140761904D02*
X140846247Y-140714285D01*
X140846247Y-140714285D02*
X141084342Y-140714285D01*
X141084342Y-140714285D02*
X141179580Y-140761904D01*
X141179580Y-140761904D02*
X141227200Y-140809523D01*
X141227200Y-140809523D02*
X141274819Y-140904761D01*
X141274819Y-140904761D02*
X141274819Y-141190475D01*
X141274819Y-141190475D02*
X141227200Y-141285713D01*
X141227200Y-141285713D02*
X141179580Y-141333332D01*
X124666667Y-68867200D02*
X124809524Y-68914819D01*
X124809524Y-68914819D02*
X125047619Y-68914819D01*
X125047619Y-68914819D02*
X125142857Y-68867200D01*
X125142857Y-68867200D02*
X125190476Y-68819580D01*
X125190476Y-68819580D02*
X125238095Y-68724342D01*
X125238095Y-68724342D02*
X125238095Y-68629104D01*
X125238095Y-68629104D02*
X125190476Y-68533866D01*
X125190476Y-68533866D02*
X125142857Y-68486247D01*
X125142857Y-68486247D02*
X125047619Y-68438628D01*
X125047619Y-68438628D02*
X124857143Y-68391009D01*
X124857143Y-68391009D02*
X124761905Y-68343390D01*
X124761905Y-68343390D02*
X124714286Y-68295771D01*
X124714286Y-68295771D02*
X124666667Y-68200533D01*
X124666667Y-68200533D02*
X124666667Y-68105295D01*
X124666667Y-68105295D02*
X124714286Y-68010057D01*
X124714286Y-68010057D02*
X124761905Y-67962438D01*
X124761905Y-67962438D02*
X124857143Y-67914819D01*
X124857143Y-67914819D02*
X125095238Y-67914819D01*
X125095238Y-67914819D02*
X125238095Y-67962438D01*
X125571429Y-67914819D02*
X125809524Y-68914819D01*
X125809524Y-68914819D02*
X126000000Y-68200533D01*
X126000000Y-68200533D02*
X126190476Y-68914819D01*
X126190476Y-68914819D02*
X126428572Y-67914819D01*
X127285714Y-67914819D02*
X126809524Y-67914819D01*
X126809524Y-67914819D02*
X126761905Y-68391009D01*
X126761905Y-68391009D02*
X126809524Y-68343390D01*
X126809524Y-68343390D02*
X126904762Y-68295771D01*
X126904762Y-68295771D02*
X127142857Y-68295771D01*
X127142857Y-68295771D02*
X127238095Y-68343390D01*
X127238095Y-68343390D02*
X127285714Y-68391009D01*
X127285714Y-68391009D02*
X127333333Y-68486247D01*
X127333333Y-68486247D02*
X127333333Y-68724342D01*
X127333333Y-68724342D02*
X127285714Y-68819580D01*
X127285714Y-68819580D02*
X127238095Y-68867200D01*
X127238095Y-68867200D02*
X127142857Y-68914819D01*
X127142857Y-68914819D02*
X126904762Y-68914819D01*
X126904762Y-68914819D02*
X126809524Y-68867200D01*
X126809524Y-68867200D02*
X126761905Y-68819580D01*
X149333333Y-71859580D02*
X149285714Y-71907200D01*
X149285714Y-71907200D02*
X149142857Y-71954819D01*
X149142857Y-71954819D02*
X149047619Y-71954819D01*
X149047619Y-71954819D02*
X148904762Y-71907200D01*
X148904762Y-71907200D02*
X148809524Y-71811961D01*
X148809524Y-71811961D02*
X148761905Y-71716723D01*
X148761905Y-71716723D02*
X148714286Y-71526247D01*
X148714286Y-71526247D02*
X148714286Y-71383390D01*
X148714286Y-71383390D02*
X148761905Y-71192914D01*
X148761905Y-71192914D02*
X148809524Y-71097676D01*
X148809524Y-71097676D02*
X148904762Y-71002438D01*
X148904762Y-71002438D02*
X149047619Y-70954819D01*
X149047619Y-70954819D02*
X149142857Y-70954819D01*
X149142857Y-70954819D02*
X149285714Y-71002438D01*
X149285714Y-71002438D02*
X149333333Y-71050057D01*
X150285714Y-71954819D02*
X149714286Y-71954819D01*
X150000000Y-71954819D02*
X150000000Y-70954819D01*
X150000000Y-70954819D02*
X149904762Y-71097676D01*
X149904762Y-71097676D02*
X149809524Y-71192914D01*
X149809524Y-71192914D02*
X149714286Y-71240533D01*
X94592800Y-117666667D02*
X94545180Y-117809524D01*
X94545180Y-117809524D02*
X94545180Y-118047619D01*
X94545180Y-118047619D02*
X94592800Y-118142857D01*
X94592800Y-118142857D02*
X94640419Y-118190476D01*
X94640419Y-118190476D02*
X94735657Y-118238095D01*
X94735657Y-118238095D02*
X94830895Y-118238095D01*
X94830895Y-118238095D02*
X94926133Y-118190476D01*
X94926133Y-118190476D02*
X94973752Y-118142857D01*
X94973752Y-118142857D02*
X95021371Y-118047619D01*
X95021371Y-118047619D02*
X95068990Y-117857143D01*
X95068990Y-117857143D02*
X95116609Y-117761905D01*
X95116609Y-117761905D02*
X95164228Y-117714286D01*
X95164228Y-117714286D02*
X95259466Y-117666667D01*
X95259466Y-117666667D02*
X95354704Y-117666667D01*
X95354704Y-117666667D02*
X95449942Y-117714286D01*
X95449942Y-117714286D02*
X95497561Y-117761905D01*
X95497561Y-117761905D02*
X95545180Y-117857143D01*
X95545180Y-117857143D02*
X95545180Y-118095238D01*
X95545180Y-118095238D02*
X95497561Y-118238095D01*
X95545180Y-118571429D02*
X94545180Y-118809524D01*
X94545180Y-118809524D02*
X95259466Y-119000000D01*
X95259466Y-119000000D02*
X94545180Y-119190476D01*
X94545180Y-119190476D02*
X95545180Y-119428572D01*
X94545180Y-120333333D02*
X94545180Y-119761905D01*
X94545180Y-120047619D02*
X95545180Y-120047619D01*
X95545180Y-120047619D02*
X95402323Y-119952381D01*
X95402323Y-119952381D02*
X95307085Y-119857143D01*
X95307085Y-119857143D02*
X95259466Y-119761905D01*
X141454819Y-134166666D02*
X140978628Y-134499999D01*
X141454819Y-134738094D02*
X140454819Y-134738094D01*
X140454819Y-134738094D02*
X140454819Y-134357142D01*
X140454819Y-134357142D02*
X140502438Y-134261904D01*
X140502438Y-134261904D02*
X140550057Y-134214285D01*
X140550057Y-134214285D02*
X140645295Y-134166666D01*
X140645295Y-134166666D02*
X140788152Y-134166666D01*
X140788152Y-134166666D02*
X140883390Y-134214285D01*
X140883390Y-134214285D02*
X140931009Y-134261904D01*
X140931009Y-134261904D02*
X140978628Y-134357142D01*
X140978628Y-134357142D02*
X140978628Y-134738094D01*
X140883390Y-133595237D02*
X140835771Y-133690475D01*
X140835771Y-133690475D02*
X140788152Y-133738094D01*
X140788152Y-133738094D02*
X140692914Y-133785713D01*
X140692914Y-133785713D02*
X140645295Y-133785713D01*
X140645295Y-133785713D02*
X140550057Y-133738094D01*
X140550057Y-133738094D02*
X140502438Y-133690475D01*
X140502438Y-133690475D02*
X140454819Y-133595237D01*
X140454819Y-133595237D02*
X140454819Y-133404761D01*
X140454819Y-133404761D02*
X140502438Y-133309523D01*
X140502438Y-133309523D02*
X140550057Y-133261904D01*
X140550057Y-133261904D02*
X140645295Y-133214285D01*
X140645295Y-133214285D02*
X140692914Y-133214285D01*
X140692914Y-133214285D02*
X140788152Y-133261904D01*
X140788152Y-133261904D02*
X140835771Y-133309523D01*
X140835771Y-133309523D02*
X140883390Y-133404761D01*
X140883390Y-133404761D02*
X140883390Y-133595237D01*
X140883390Y-133595237D02*
X140931009Y-133690475D01*
X140931009Y-133690475D02*
X140978628Y-133738094D01*
X140978628Y-133738094D02*
X141073866Y-133785713D01*
X141073866Y-133785713D02*
X141264342Y-133785713D01*
X141264342Y-133785713D02*
X141359580Y-133738094D01*
X141359580Y-133738094D02*
X141407200Y-133690475D01*
X141407200Y-133690475D02*
X141454819Y-133595237D01*
X141454819Y-133595237D02*
X141454819Y-133404761D01*
X141454819Y-133404761D02*
X141407200Y-133309523D01*
X141407200Y-133309523D02*
X141359580Y-133261904D01*
X141359580Y-133261904D02*
X141264342Y-133214285D01*
X141264342Y-133214285D02*
X141073866Y-133214285D01*
X141073866Y-133214285D02*
X140978628Y-133261904D01*
X140978628Y-133261904D02*
X140931009Y-133309523D01*
X140931009Y-133309523D02*
X140883390Y-133404761D01*
X94592800Y-138166667D02*
X94545180Y-138309524D01*
X94545180Y-138309524D02*
X94545180Y-138547619D01*
X94545180Y-138547619D02*
X94592800Y-138642857D01*
X94592800Y-138642857D02*
X94640419Y-138690476D01*
X94640419Y-138690476D02*
X94735657Y-138738095D01*
X94735657Y-138738095D02*
X94830895Y-138738095D01*
X94830895Y-138738095D02*
X94926133Y-138690476D01*
X94926133Y-138690476D02*
X94973752Y-138642857D01*
X94973752Y-138642857D02*
X95021371Y-138547619D01*
X95021371Y-138547619D02*
X95068990Y-138357143D01*
X95068990Y-138357143D02*
X95116609Y-138261905D01*
X95116609Y-138261905D02*
X95164228Y-138214286D01*
X95164228Y-138214286D02*
X95259466Y-138166667D01*
X95259466Y-138166667D02*
X95354704Y-138166667D01*
X95354704Y-138166667D02*
X95449942Y-138214286D01*
X95449942Y-138214286D02*
X95497561Y-138261905D01*
X95497561Y-138261905D02*
X95545180Y-138357143D01*
X95545180Y-138357143D02*
X95545180Y-138595238D01*
X95545180Y-138595238D02*
X95497561Y-138738095D01*
X95545180Y-139071429D02*
X94545180Y-139309524D01*
X94545180Y-139309524D02*
X95259466Y-139500000D01*
X95259466Y-139500000D02*
X94545180Y-139690476D01*
X94545180Y-139690476D02*
X95545180Y-139928572D01*
X95449942Y-140261905D02*
X95497561Y-140309524D01*
X95497561Y-140309524D02*
X95545180Y-140404762D01*
X95545180Y-140404762D02*
X95545180Y-140642857D01*
X95545180Y-140642857D02*
X95497561Y-140738095D01*
X95497561Y-140738095D02*
X95449942Y-140785714D01*
X95449942Y-140785714D02*
X95354704Y-140833333D01*
X95354704Y-140833333D02*
X95259466Y-140833333D01*
X95259466Y-140833333D02*
X95116609Y-140785714D01*
X95116609Y-140785714D02*
X94545180Y-140214286D01*
X94545180Y-140214286D02*
X94545180Y-140833333D01*
X130954819Y-58642857D02*
X130478628Y-58976190D01*
X130954819Y-59214285D02*
X129954819Y-59214285D01*
X129954819Y-59214285D02*
X129954819Y-58833333D01*
X129954819Y-58833333D02*
X130002438Y-58738095D01*
X130002438Y-58738095D02*
X130050057Y-58690476D01*
X130050057Y-58690476D02*
X130145295Y-58642857D01*
X130145295Y-58642857D02*
X130288152Y-58642857D01*
X130288152Y-58642857D02*
X130383390Y-58690476D01*
X130383390Y-58690476D02*
X130431009Y-58738095D01*
X130431009Y-58738095D02*
X130478628Y-58833333D01*
X130478628Y-58833333D02*
X130478628Y-59214285D01*
X130954819Y-57690476D02*
X130954819Y-58261904D01*
X130954819Y-57976190D02*
X129954819Y-57976190D01*
X129954819Y-57976190D02*
X130097676Y-58071428D01*
X130097676Y-58071428D02*
X130192914Y-58166666D01*
X130192914Y-58166666D02*
X130240533Y-58261904D01*
X129954819Y-56785714D02*
X129954819Y-57261904D01*
X129954819Y-57261904D02*
X130431009Y-57309523D01*
X130431009Y-57309523D02*
X130383390Y-57261904D01*
X130383390Y-57261904D02*
X130335771Y-57166666D01*
X130335771Y-57166666D02*
X130335771Y-56928571D01*
X130335771Y-56928571D02*
X130383390Y-56833333D01*
X130383390Y-56833333D02*
X130431009Y-56785714D01*
X130431009Y-56785714D02*
X130526247Y-56738095D01*
X130526247Y-56738095D02*
X130764342Y-56738095D01*
X130764342Y-56738095D02*
X130859580Y-56785714D01*
X130859580Y-56785714D02*
X130907200Y-56833333D01*
X130907200Y-56833333D02*
X130954819Y-56928571D01*
X130954819Y-56928571D02*
X130954819Y-57166666D01*
X130954819Y-57166666D02*
X130907200Y-57261904D01*
X130907200Y-57261904D02*
X130859580Y-57309523D01*
X208990057Y-119365238D02*
X208942438Y-119460476D01*
X208942438Y-119460476D02*
X208847200Y-119555714D01*
X208847200Y-119555714D02*
X208704342Y-119698571D01*
X208704342Y-119698571D02*
X208656723Y-119793809D01*
X208656723Y-119793809D02*
X208656723Y-119889047D01*
X208894819Y-119841428D02*
X208847200Y-119936666D01*
X208847200Y-119936666D02*
X208751961Y-120031904D01*
X208751961Y-120031904D02*
X208561485Y-120079523D01*
X208561485Y-120079523D02*
X208228152Y-120079523D01*
X208228152Y-120079523D02*
X208037676Y-120031904D01*
X208037676Y-120031904D02*
X207942438Y-119936666D01*
X207942438Y-119936666D02*
X207894819Y-119841428D01*
X207894819Y-119841428D02*
X207894819Y-119650952D01*
X207894819Y-119650952D02*
X207942438Y-119555714D01*
X207942438Y-119555714D02*
X208037676Y-119460476D01*
X208037676Y-119460476D02*
X208228152Y-119412857D01*
X208228152Y-119412857D02*
X208561485Y-119412857D01*
X208561485Y-119412857D02*
X208751961Y-119460476D01*
X208751961Y-119460476D02*
X208847200Y-119555714D01*
X208847200Y-119555714D02*
X208894819Y-119650952D01*
X208894819Y-119650952D02*
X208894819Y-119841428D01*
X208894819Y-118460476D02*
X208894819Y-119031904D01*
X208894819Y-118746190D02*
X207894819Y-118746190D01*
X207894819Y-118746190D02*
X208037676Y-118841428D01*
X208037676Y-118841428D02*
X208132914Y-118936666D01*
X208132914Y-118936666D02*
X208180533Y-119031904D01*
X94592800Y-78166667D02*
X94545180Y-78309524D01*
X94545180Y-78309524D02*
X94545180Y-78547619D01*
X94545180Y-78547619D02*
X94592800Y-78642857D01*
X94592800Y-78642857D02*
X94640419Y-78690476D01*
X94640419Y-78690476D02*
X94735657Y-78738095D01*
X94735657Y-78738095D02*
X94830895Y-78738095D01*
X94830895Y-78738095D02*
X94926133Y-78690476D01*
X94926133Y-78690476D02*
X94973752Y-78642857D01*
X94973752Y-78642857D02*
X95021371Y-78547619D01*
X95021371Y-78547619D02*
X95068990Y-78357143D01*
X95068990Y-78357143D02*
X95116609Y-78261905D01*
X95116609Y-78261905D02*
X95164228Y-78214286D01*
X95164228Y-78214286D02*
X95259466Y-78166667D01*
X95259466Y-78166667D02*
X95354704Y-78166667D01*
X95354704Y-78166667D02*
X95449942Y-78214286D01*
X95449942Y-78214286D02*
X95497561Y-78261905D01*
X95497561Y-78261905D02*
X95545180Y-78357143D01*
X95545180Y-78357143D02*
X95545180Y-78595238D01*
X95545180Y-78595238D02*
X95497561Y-78738095D01*
X95545180Y-79071429D02*
X94545180Y-79309524D01*
X94545180Y-79309524D02*
X95259466Y-79500000D01*
X95259466Y-79500000D02*
X94545180Y-79690476D01*
X94545180Y-79690476D02*
X95545180Y-79928572D01*
X95211847Y-80738095D02*
X94545180Y-80738095D01*
X95592800Y-80500000D02*
X94878514Y-80261905D01*
X94878514Y-80261905D02*
X94878514Y-80880952D01*
D12*
%TO.C,D2*%
X130365000Y-139040000D02*
X130365000Y-143100000D01*
X132635000Y-139040000D02*
X130365000Y-139040000D01*
X132635000Y-143100000D02*
X132635000Y-139040000D01*
%TO.C,D1*%
X167670000Y-67830000D02*
X167670000Y-66500000D01*
X169000000Y-67830000D02*
X167670000Y-67830000D01*
X170270000Y-65170000D02*
X177950000Y-65170000D01*
X170270000Y-67830000D02*
X170270000Y-65170000D01*
X170270000Y-67830000D02*
X177950000Y-67830000D01*
X177950000Y-67830000D02*
X177950000Y-65170000D01*
%TO.C,D7*%
X127365000Y-62052500D02*
X127365000Y-66112500D01*
X129635000Y-62052500D02*
X127365000Y-62052500D01*
X129635000Y-66112500D02*
X129635000Y-62052500D01*
%TO.C,R6*%
X205917064Y-108360000D02*
X204462936Y-108360000D01*
X205917064Y-110180000D02*
X204462936Y-110180000D01*
%TO.C,R9*%
X130590000Y-134727064D02*
X130590000Y-133272936D01*
X132410000Y-134727064D02*
X132410000Y-133272936D01*
%TO.C,R12*%
X145590000Y-134727064D02*
X145590000Y-133272936D01*
X147410000Y-134727064D02*
X147410000Y-133272936D01*
%TO.C,J1*%
X96900000Y-53800000D02*
X106100000Y-53800000D01*
X96900000Y-62300000D02*
X96900000Y-53800000D01*
X96900000Y-68500000D02*
X96900000Y-66700000D01*
X99000000Y-68500000D02*
X96900000Y-68500000D01*
X104700000Y-68800000D02*
X106400000Y-68800000D01*
X106100000Y-53800000D02*
X106100000Y-68500000D01*
X106100000Y-68500000D02*
X104000000Y-68500000D01*
X106400000Y-68800000D02*
X106400000Y-67200000D01*
%TO.C,Q2*%
X213850000Y-111070000D02*
X213850000Y-107470000D01*
X209400000Y-109270000D02*
G75*
G02*
X213838478Y-107431522I2600000J0D01*
G01*
X213838478Y-111108478D02*
G75*
G02*
X209399999Y-109270000I-1838478J1838478D01*
G01*
%TO.C,R3*%
X97590000Y-109727064D02*
X97590000Y-108272936D01*
X99410000Y-109727064D02*
X99410000Y-108272936D01*
%TO.C,R4*%
X97590000Y-88272936D02*
X97590000Y-89727064D01*
X99410000Y-88272936D02*
X99410000Y-89727064D01*
%TO.C,M1*%
X151710000Y-67830000D02*
X151710000Y-66500000D01*
X153040000Y-67830000D02*
X151710000Y-67830000D01*
X154310000Y-65170000D02*
X161990000Y-65170000D01*
X154310000Y-67830000D02*
X154310000Y-65170000D01*
X154310000Y-67830000D02*
X161990000Y-67830000D01*
X161990000Y-67830000D02*
X161990000Y-65170000D01*
%TO.C,R1*%
X97590000Y-129727064D02*
X97590000Y-128272936D01*
X99410000Y-129727064D02*
X99410000Y-128272936D01*
%TO.C,SW3*%
X98250000Y-98500000D02*
X98250000Y-100000000D01*
X99500000Y-102500000D02*
X104000000Y-102500000D01*
X104000000Y-96000000D02*
X99500000Y-96000000D01*
X105250000Y-100000000D02*
X105250000Y-98500000D01*
%TO.C,R5*%
X205917064Y-118360000D02*
X204462936Y-118360000D01*
X205917064Y-120180000D02*
X204462936Y-120180000D01*
%TO.C,D6*%
X121865000Y-62040000D02*
X121865000Y-66100000D01*
X124135000Y-62040000D02*
X121865000Y-62040000D01*
X124135000Y-66100000D02*
X124135000Y-62040000D01*
D13*
%TO.C,U3*%
X162070000Y-77410000D02*
X190580000Y-77410000D01*
X162070000Y-128360000D02*
X162070000Y-77410000D01*
X162070000Y-128360000D02*
X162070000Y-77410000D01*
X167520000Y-77410000D02*
X162070000Y-77410000D01*
X172800000Y-128360000D02*
X162070000Y-128360000D01*
X179511000Y-128360000D02*
X172800000Y-128360000D01*
X185210000Y-77410000D02*
X167520000Y-77410000D01*
X190580000Y-77410000D02*
X185210000Y-77410000D01*
X190580000Y-77410000D02*
X190580000Y-128360000D01*
X190580000Y-77410000D02*
X190580000Y-128360000D01*
X190580000Y-128360000D02*
X162070000Y-128360000D01*
X190580000Y-128360000D02*
X179511000Y-128360000D01*
D14*
X191250000Y-118400000D02*
G75*
G02*
X191050000Y-118400000I-100000J0D01*
G01*
X191050000Y-118400000D02*
G75*
G02*
X191250000Y-118400000I100000J0D01*
G01*
D12*
%TO.C,R13*%
X153090000Y-134727064D02*
X153090000Y-133272936D01*
X154910000Y-134727064D02*
X154910000Y-133272936D01*
%TO.C,D4*%
X145365000Y-139040000D02*
X145365000Y-143100000D01*
X147635000Y-139040000D02*
X145365000Y-139040000D01*
X147635000Y-143100000D02*
X147635000Y-139040000D01*
%TO.C,D5*%
X152865000Y-139040000D02*
X152865000Y-143100000D01*
X155135000Y-139040000D02*
X152865000Y-139040000D01*
X155135000Y-143100000D02*
X155135000Y-139040000D01*
%TO.C,R11*%
X153090000Y-125772936D02*
X153090000Y-127227064D01*
X154910000Y-125772936D02*
X154910000Y-127227064D01*
%TO.C,U1*%
D10*
X118900000Y-78000000D02*
X143900000Y-78000000D01*
X143900000Y-123000000D01*
X118900000Y-123000000D01*
X118900000Y-78000000D01*
D12*
%TO.C,Q3*%
X213850000Y-101070000D02*
X213850000Y-97470000D01*
X209400000Y-99270000D02*
G75*
G02*
X213838478Y-97431522I2600000J0D01*
G01*
X213838478Y-101108478D02*
G75*
G02*
X209399999Y-99270000I-1838478J1838478D01*
G01*
%TO.C,R2*%
X97590000Y-148272936D02*
X97590000Y-149727064D01*
X99410000Y-148272936D02*
X99410000Y-149727064D01*
%TO.C,R10*%
X145590000Y-125772936D02*
X145590000Y-127227064D01*
X147410000Y-125772936D02*
X147410000Y-127227064D01*
%TO.C,R7*%
X205917064Y-98360000D02*
X204462936Y-98360000D01*
X205917064Y-100180000D02*
X204462936Y-100180000D01*
%TO.C,R14*%
X122090000Y-55772936D02*
X122090000Y-57227064D01*
X123910000Y-55772936D02*
X123910000Y-57227064D01*
%TO.C,D3*%
X137865000Y-139040000D02*
X137865000Y-143100000D01*
X140135000Y-139040000D02*
X137865000Y-139040000D01*
X140135000Y-143100000D02*
X140135000Y-139040000D01*
%TO.C,SW5*%
X120890000Y-69640000D02*
X131110000Y-69640000D01*
X131110000Y-72360000D01*
X120890000Y-72360000D01*
X120890000Y-69640000D01*
%TO.C,C1*%
X151960000Y-70130000D02*
X151960000Y-70445000D01*
X151960000Y-70130000D02*
X157200000Y-70130000D01*
X151960000Y-72555000D02*
X151960000Y-72870000D01*
X151960000Y-72870000D02*
X157200000Y-72870000D01*
X157200000Y-70130000D02*
X157200000Y-70445000D01*
X157200000Y-72555000D02*
X157200000Y-72870000D01*
%TO.C,SW1*%
X98250000Y-118500000D02*
X98250000Y-120000000D01*
X99500000Y-122500000D02*
X104000000Y-122500000D01*
X104000000Y-116000000D02*
X99500000Y-116000000D01*
X105250000Y-120000000D02*
X105250000Y-118500000D01*
%TO.C,R8*%
X138090000Y-134727064D02*
X138090000Y-133272936D01*
X139910000Y-134727064D02*
X139910000Y-133272936D01*
%TO.C,SW2*%
X98250000Y-138500000D02*
X98250000Y-140000000D01*
X99500000Y-142500000D02*
X104000000Y-142500000D01*
X104000000Y-136000000D02*
X99500000Y-136000000D01*
X105250000Y-140000000D02*
X105250000Y-138500000D01*
%TO.C,R15*%
X127590000Y-55772936D02*
X127590000Y-57227064D01*
X129410000Y-55772936D02*
X129410000Y-57227064D01*
%TO.C,Q1*%
X213850000Y-121070000D02*
X213850000Y-117470000D01*
X209400000Y-119270000D02*
G75*
G02*
X213838478Y-117431522I2600000J0D01*
G01*
X213838478Y-121108478D02*
G75*
G02*
X209399999Y-119270000I-1838478J1838478D01*
G01*
%TO.C,SW4*%
X98250000Y-78500000D02*
X98250000Y-80000000D01*
X99500000Y-82500000D02*
X104000000Y-82500000D01*
X104000000Y-76000000D02*
X99500000Y-76000000D01*
X105250000Y-80000000D02*
X105250000Y-78500000D01*
%TD*%
M02*
